<?xml version="1.0" encoding="utf-8"?>
<!-- Generator: Adobe Illustrator 19.1.0, SVG Export Plug-In . SVG Version: 6.00 Build 0)  -->
<!DOCTYPE svg PUBLIC "-//W3C//DTD SVG 1.1//EN" "http://www.w3.org/Graphics/SVG/1.1/DTD/svg11.dtd">
<svg version="1.1" id="pattern" xmlns="http://www.w3.org/2000/svg" xmlns:xlink="http://www.w3.org/1999/xlink" x="0px" y="0px"
	 viewBox="0 0 1200 700" style="enable-background:new 0 0 1200 700;" xml:space="preserve">
<style type="text/css">
	.st0{fill:none;}
	.st1{fill:#FFFFFF;}
	.st2{opacity:0.15;fill:url(#Nueva_muestra_de_motivo_1);}
</style>
<pattern  x="320" y="204" width="800" height="800" patternUnits="userSpaceOnUse" id="Nueva_muestra_de_motivo_1" viewBox="0 -800 800 800" style="overflow:visible;">
	<g>
		<polygon class="st0" points="0,-800 800,-800 800,0 0,0 		"/>
		<path class="st1" d="M122.8-638.3c-8.7,0-15.7,7-15.7,15.7c0,8.7,7,15.7,15.7,15.7c8.7,0,15.7-7,15.7-15.7
			C138.5-631.3,131.5-638.3,122.8-638.3z"/>
		<path class="st1" d="M196-611.9c5.2,0,9.5-4.2,9.5-9.5c0-5.2-4.2-9.5-9.5-9.5c-5.2,0-9.5,4.2-9.5,9.5
			C186.5-616.1,190.7-611.9,196-611.9z"/>
		<path class="st1" d="M127.6-732c4.8,0,8.8-3.9,8.8-8.8s-3.9-8.8-8.8-8.8c-4.8,0-8.8,3.9-8.8,8.8S122.8-732,127.6-732z"/>
		<path class="st1" d="M278.1-617.9c0-4.7-3.8-8.4-8.4-8.4c-4.7,0-8.4,3.8-8.4,8.4c0,4.7,3.8,8.4,8.4,8.4
			C274.3-609.5,278.1-613.2,278.1-617.9z"/>
		<path class="st1" d="M197.8-767.7c1.1,0,2.1-0.9,2.1-2.1s-0.9-2.1-2.1-2.1c-1.1,0-2.1,0.9-2.1,2.1S196.7-767.7,197.8-767.7z"/>
		<path class="st1" d="M277.8-681.9c3.5,3,8.9,2.6,11.9-0.9c3-3.5,2.6-8.9-0.9-11.9c-3.5-3-8.9-2.6-11.9,0.9
			C273.8-690.2,274.2-684.9,277.8-681.9z"/>
		<path class="st1" d="M305.1-671.9c-4.1,4.8-3.5,12,1.3,16.1c4.8,4.1,12,3.5,16.1-1.3c4.1-4.8,3.5-12-1.3-16.1
			C316.4-677.3,309.2-676.7,305.1-671.9z"/>
		<path class="st1" d="M163.4-742.5c2.9,2.5,7.3,2.1,9.7-0.8c2.5-2.9,2.1-7.3-0.8-9.7c-2.9-2.5-7.3-2.1-9.7,0.8
			C160.2-749.3,160.5-745,163.4-742.5z"/>
		<path class="st1" d="M164.5-702.9c-2,6,1.2,12.5,7.2,14.5c6,2,12.5-1.2,14.5-7.2c2-6-1.2-12.5-7.2-14.5
			C173-712.1,166.5-708.9,164.5-702.9z"/>
		<path class="st1" d="M236.4-509.5c1.2-3.6-0.7-7.5-4.3-8.7c-3.6-1.2-7.5,0.7-8.7,4.3c-1.2,3.6,0.7,7.5,4.3,8.7
			C231.2-503.9,235.1-505.9,236.4-509.5z"/>
		<path class="st1" d="M217.8-658.6c4.6,1.6,9.6-0.9,11.1-5.5c1.6-4.6-0.9-9.6-5.5-11.1c-4.6-1.6-9.6,0.9-11.1,5.5
			C210.7-665.1,213.2-660.2,217.8-658.6z"/>
		<path class="st1" d="M75.3-508.4c-4.4-1.5-9.2,0.9-10.7,5.3c-1.5,4.4,0.9,9.2,5.3,10.7c4.4,1.5,9.2-0.9,10.7-5.3
			C82-502.1,79.7-506.9,75.3-508.4z"/>
		<path class="st1" d="M306.8-783.9c1.9,0.7,4-0.4,4.7-2.3c0.7-1.9-0.4-4-2.3-4.7c-1.9-0.7-4,0.4-4.7,2.3
			C303.8-786.7,304.9-784.6,306.8-783.9z"/>
		<path class="st1" d="M238-730.9c5.4-3.2,7.2-10.3,4-15.7c-3.2-5.4-10.3-7.2-15.7-4c-5.4,3.2-7.2,10.3-4,15.7
			C225.6-729.5,232.6-727.7,238-730.9z"/>
		<path class="st1" d="M94.3-653c1.9-1.2,2.6-3.7,1.4-5.6c-1.2-1.9-3.7-2.6-5.6-1.4c-1.9,1.2-2.6,3.7-1.4,5.6
			C89.8-652.5,92.3-651.9,94.3-653z"/>
		<path class="st1" d="M151-655.3c2-1.2,2.6-3.8,1.5-5.8c-1.2-2-3.8-2.6-5.8-1.5c-2,1.2-2.6,3.8-1.5,5.8
			C146.4-654.7,149-654.1,151-655.3z"/>
		<path class="st1" d="M48.8-646.6c2.4,4,7.6,5.3,11.6,2.9c4-2.4,5.3-7.6,2.9-11.6c-2.4-4-7.6-5.3-11.6-2.9
			C47.8-655.7,46.4-650.5,48.8-646.6z"/>
		<path class="st1" d="M232-788c1.6-1,2.2-3.1,1.2-4.7c-1-1.6-3.1-2.2-4.7-1.2c-1.6,1-2.2,3.1-1.2,4.7
			C228.3-787.5,230.4-787,232-788z"/>
		<path class="st1" d="M32.9-789.1c1-0.6,1.3-1.9,0.7-2.8c-0.6-1-1.9-1.3-2.8-0.7c-1,0.6-1.3,1.9-0.7,2.8
			C30.6-788.9,31.9-788.5,32.9-789.1z"/>
		<path class="st1" d="M112.1-677.7c5.4-3.2,7.2-10.2,4-15.7c-3.2-5.4-10.2-7.2-15.7-3.9c-5.4,3.2-7.2,10.2-3.9,15.7
			C99.7-676.3,106.7-674.5,112.1-677.7z"/>
		<path class="st1" d="M75.4-715.3c-2.6,1.5-3.4,4.8-1.9,7.4c1.5,2.6,4.8,3.4,7.4,1.9c2.6-1.5,3.4-4.8,1.9-7.4
			C81.3-716,78-716.8,75.4-715.3z"/>
		<path class="st1" d="M168.3-608.1c-0.8-1.4-2.6-1.8-3.9-1c-1.4,0.8-1.8,2.6-1,3.9c0.8,1.4,2.6,1.8,3.9,1
			C168.7-604.9,169.1-606.7,168.3-608.1z"/>
		<path class="st1" d="M186.1-655.4c-0.6-1-2-1.4-3-0.8c-1,0.6-1.4,2-0.8,3c0.6,1,2,1.4,3,0.8C186.4-653,186.8-654.3,186.1-655.4z"
			/>
		<path class="st1" d="M149.3-585.7c-1.6,4.6,0.9,9.6,5.5,11.1c4.6,1.6,9.6-0.9,11.1-5.5c1.6-4.6-0.9-9.6-5.5-11.1
			C155.8-592.8,150.8-590.3,149.3-585.7z"/>
		<path class="st1" d="M82.2-572.7c1.2,2,3.8,2.6,5.8,1.5c2-1.2,2.6-3.8,1.5-5.8c-1.2-2-3.8-2.6-5.8-1.5
			C81.7-577.3,81.1-574.7,82.2-572.7z"/>
		<path class="st1" d="M123.1-571.4c-0.6-1-2-1.4-3-0.8c-1,0.6-1.4,2-0.8,3c0.6,1,2,1.4,3,0.8C123.4-569,123.8-570.3,123.1-571.4z"
			/>
		<path class="st1" d="M117.7-553.2c0-2.1-1.7-3.8-3.8-3.8c-2.1,0-3.8,1.7-3.8,3.8c0,2.1,1.7,3.8,3.8,3.8
			C116-549.4,117.7-551.1,117.7-553.2z"/>
		<path class="st1" d="M73.8-609.6c4.6,1.6,9.6-0.9,11.1-5.5c1.6-4.6-0.9-9.6-5.5-11.1c-4.6-1.6-9.6,0.9-11.1,5.5
			C66.7-616.1,69.2-611.2,73.8-609.6z"/>
		<path class="st1" d="M14.8-586.8c3.4-2.1,4.6-6.5,2.5-10c-2.1-3.4-6.5-4.6-10-2.5c-3.4,2.1-4.6,6.5-2.5,10
			C6.9-585.9,11.4-584.8,14.8-586.8z"/>
		<path class="st1" d="M18.3-555.1c1.4-0.8,1.8-2.6,1-3.9c-0.8-1.4-2.6-1.8-3.9-1c-1.4,0.8-1.8,2.6-1,3.9
			C15.2-554.8,16.9-554.3,18.3-555.1z"/>
		<path class="st1" d="M36.4-603.4c1-0.6,1.4-2,0.8-3c-0.6-1-2-1.4-3-0.8c-1,0.6-1.4,2-0.8,3C34-603.1,35.3-602.8,36.4-603.4z"/>
		<path class="st1" d="M59.4-553.2c-4.6-1.6-9.6,0.9-11.1,5.5c-1.6,4.6,0.9,9.6,5.5,11.1c4.6,1.6,9.6-0.9,11.1-5.5
			C66.4-546.7,64-551.7,59.4-553.2z"/>
		<path class="st1" d="M28.8-689.8c8.7,0,15.7-7,15.7-15.7c0-8.7-7-15.7-15.7-15.7c-8.7,0-15.7,7-15.7,15.7
			C13-696.9,20.1-689.8,28.8-689.8z"/>
		<path class="st1" d="M7.8-658.8c-1.7-2.9-4.7-4.5-7.8-4.7v19.3c1.5-0.1,3.1-0.5,4.5-1.4C9-648.3,10.5-654.2,7.8-658.8z"/>
		<path class="st1" d="M77-780.3c2-1.2,2.6-3.8,1.5-5.8c-1.2-2-3.8-2.6-5.8-1.5c-2,1.2-2.6,3.8-1.5,5.8
			C72.4-779.7,75-779.1,77-780.3z"/>
		<path class="st1" d="M128.4-786.4c1-0.6,1.4-2,0.8-3c-0.6-1-2-1.4-3-0.8c-1,0.6-1.4,2-0.8,3C126-786.1,127.3-785.8,128.4-786.4z"
			/>
		<path class="st1" d="M103-758.4c2.1,0,3.8-1.7,3.8-3.8c0-2.1-1.7-3.8-3.8-3.8c-2.1,0-3.8,1.7-3.8,3.8
			C99.2-760.1,100.9-758.4,103-758.4z"/>
		<path class="st1" d="M4.4-769.1c-1.4,0.8-1.8,2.6-1,3.9c0.8,1.4,2.6,1.8,3.9,1c1.4-0.8,1.8-2.6,1-3.9
			C7.5-769.4,5.7-769.9,4.4-769.1z"/>
		<path class="st1" d="M2.1-692.1c-1,0.6-1.4,2-0.8,3c0.6,1,2,1.4,3,0.8c1-0.6,1.4-2,0.8-3C4.5-692.4,3.2-692.8,2.1-692.1z"/>
		<path class="st1" d="M37.8-745.6c4.6,1.6,9.6-0.9,11.1-5.5c1.6-4.6-0.9-9.6-5.5-11.1c-4.6-1.6-9.6,0.9-11.1,5.5
			C30.7-752.1,33.2-747.2,37.8-745.6z"/>
		<path class="st1" d="M235.2-635.1c-2.3,0-4.2,1.9-4.2,4.2c0,2.3,1.9,4.2,4.2,4.2c2.3,0,4.2-1.9,4.2-4.2
			C239.4-633.2,237.5-635.1,235.2-635.1z"/>
		<path class="st1" d="M205.4-690.7c1.2,0,2.2-1,2.2-2.2c0-1.2-1-2.2-2.2-2.2c-1.2,0-2.2,1-2.2,2.2
			C203.2-691.7,204.1-690.7,205.4-690.7z"/>
		<path class="st1" d="M247.3-658.6c1.8,1.1,4.1,0.5,5.2-1.3c1.1-1.8,0.5-4.1-1.3-5.2c-1.8-1.1-4.1-0.5-5.2,1.3
			C244.9-662,245.5-659.6,247.3-658.6z"/>
		<path class="st1" d="M200.7-585.2c0-1.6-1.3-2.9-2.9-2.9c-1.6,0-2.9,1.3-2.9,2.9c0,1.6,1.3,2.9,2.9,2.9
			C199.4-582.3,200.7-583.6,200.7-585.2z"/>
		<path class="st1" d="M160.6-628.4c1.2,0,2.2-1,2.2-2.2c0-1.2-1-2.2-2.2-2.2c-1.2,0-2.2,1-2.2,2.2
			C158.4-629.4,159.3-628.4,160.6-628.4z"/>
		<path class="st1" d="M236.4-605c-3.1-3.7-8.7-4.2-12.4-1c-3.7,3.1-4.2,8.7-1,12.4c3.1,3.7,8.7,4.2,12.4,1
			C239-595.8,239.5-601.3,236.4-605z"/>
		<path class="st1" d="M130.6-525.1c4-0.2,7.1-3.7,6.8-7.7c-0.2-4-3.7-7.1-7.7-6.8c-4,0.2-7.1,3.7-6.8,7.7
			C123.2-528,126.6-524.9,130.6-525.1z"/>
		<path class="st1" d="M231.6-561.1c1.5,0.4,3.1-0.5,3.5-2c0.4-1.5-0.5-3.1-2-3.5c-1.5-0.4-3.1,0.5-3.5,2
			C229.2-563.1,230.1-561.5,231.6-561.1z"/>
		<path class="st1" d="M153.8-506.3c-1,3.6,1.1,7.3,4.7,8.3c3.6,1,7.3-1.1,8.3-4.7c1-3.6-1.1-7.3-4.7-8.3
			C158.5-512,154.8-509.9,153.8-506.3z"/>
		<path class="st1" d="M197.7-545c-1-1.5-3-1.9-4.5-0.9c-1.5,1-1.9,3-0.9,4.5c1,1.5,3,1.9,4.5,0.9
			C198.3-541.6,198.7-543.6,197.7-545z"/>
		<path class="st1" d="M90.3-536.7c-1,0.7-1.3,2.1-0.6,3.1c0.7,1,2.1,1.3,3.1,0.6c1-0.7,1.3-2.1,0.6-3.1
			C92.7-537.2,91.4-537.4,90.3-536.7z"/>
		<path class="st1" d="M137.7-491.9c-0.6,0.7-0.4,1.8,0.3,2.4c0.7,0.6,1.8,0.4,2.4-0.3c0.6-0.7,0.4-1.8-0.3-2.4
			C139.3-492.7,138.3-492.6,137.7-491.9z"/>
		<path class="st1" d="M305.3-730.7c3.6,1,7.3-1.1,8.3-4.7c1-3.6-1.1-7.3-4.7-8.3c-3.6-1-7.3,1.1-8.3,4.7
			C299.6-735.4,301.7-731.7,305.3-730.7z"/>
		<path class="st1" d="M162.1-552.6c0.1,1.8,1.6,3.2,3.4,3.1c1.8-0.1,3.2-1.6,3.1-3.4c-0.1-1.8-1.6-3.2-3.4-3.1
			C163.4-555.9,162-554.3,162.1-552.6z"/>
		<path class="st1" d="M193.5-514c-0.9,0-1.6,0.8-1.6,1.8c0,0.9,0.8,1.6,1.8,1.6c0.9,0,1.6-0.8,1.6-1.8
			C195.2-513.3,194.4-514.1,193.5-514z"/>
		<path class="st1" d="M153.1-476.6c-0.7,1.4-0.2,3.2,1.2,3.9c1.4,0.7,3.2,0.2,3.9-1.2c0.7-1.4,0.2-3.2-1.2-3.9
			C155.6-478.6,153.8-478,153.1-476.6z"/>
		<path class="st1" d="M94.4-513.6c-1.2,0.1-2.2,1.1-2.1,2.3c0.1,1.2,1.1,2.2,2.3,2.1c1.2-0.1,2.2-1.1,2.1-2.3
			C96.7-512.7,95.7-513.6,94.4-513.6z"/>
		<path class="st1" d="M67.9-578.3c0.9-0.1,1.6-0.8,1.6-1.8c-0.1-0.9-0.8-1.6-1.8-1.6c-0.9,0-1.6,0.8-1.6,1.8
			C66.2-579,66.9-578.3,67.9-578.3z"/>
		<path class="st1" d="M108.7-485.6c2.6,2.7,6.8,2.8,9.5,0.3c2.7-2.6,2.8-6.8,0.3-9.5c-2.6-2.7-6.8-2.8-9.5-0.3
			C106.3-492.6,106.2-488.3,108.7-485.6z"/>
		<path class="st1" d="M384.9-449.4c-3.5-4.8-10.3-5.9-15.2-2.4c-4.8,3.5-5.9,10.3-2.4,15.2c3.5,4.8,10.3,5.9,15.2,2.4
			C387.4-437.7,388.4-444.5,384.9-449.4z"/>
		<path class="st1" d="M305.5-390.4c3.1,4.2,9,5.1,13.2,2.1c4.2-3.1,5.1-9,2.1-13.2c-3.1-4.2-9-5.1-13.2-2.1
			C303.3-400.5,302.4-394.6,305.5-390.4z"/>
		<path class="st1" d="M429.4-352.4c-3.9,2.9-4.8,8.3-1.9,12.3c2.9,3.9,8.3,4.8,12.3,1.9c3.9-2.9,4.8-8.3,1.9-12.3
			C438.8-354.4,433.3-355.3,429.4-352.4z"/>
		<path class="st1" d="M244.7-350.3c2.7,3.8,8,4.6,11.8,1.8c3.8-2.7,4.6-8,1.8-11.8c-2.7-3.8-8-4.6-11.8-1.8
			C242.8-359.4,242-354.1,244.7-350.3z"/>
		<path class="st1" d="M396.2-278.8c0.9-0.7,1.1-2,0.5-2.9c-0.7-0.9-2-1.1-2.9-0.5c-0.9,0.7-1.1,2-0.5,2.9
			C394-278.4,395.3-278.1,396.2-278.8z"/>
		<path class="st1" d="M282.7-298.8c-4.6-0.4-8.7,3.1-9,7.8c-0.4,4.6,3.1,8.7,7.8,9c4.6,0.4,8.7-3.1,9-7.8
			C290.8-294.4,287.3-298.5,282.7-298.8z"/>
		<path class="st1" d="M244.2-303.1c-6.3-0.5-11.8,4.2-12.3,10.5c-0.5,6.3,4.2,11.8,10.5,12.3c6.3,0.5,11.8-4.2,12.3-10.5
			C255.2-297.1,250.5-302.6,244.2-303.1z"/>
		<path class="st1" d="M405.6-309c3.8,0.3,7.1-2.6,7.4-6.4c0.3-3.8-2.6-7.1-6.4-7.4c-3.8-0.3-7.1,2.6-7.4,6.4
			C399-312.7,401.8-309.3,405.6-309z"/>
		<path class="st1" d="M379.1-334.2c6-1.9,9.4-8.3,7.5-14.3c-1.9-6-8.3-9.4-14.3-7.5c-6,1.9-9.4,8.3-7.5,14.3
			C366.7-335.7,373.1-332.3,379.1-334.2z"/>
		<path class="st1" d="M227.7-466.6c-1.1-3.6-5-5.7-8.6-4.5c-3.6,1.1-5.7,5-4.5,8.6c1.1,3.6,5,5.7,8.6,4.5
			C226.8-459.1,228.9-463,227.7-466.6z"/>
		<path class="st1" d="M322.7-336.2c4.6-1.4,7.2-6.4,5.8-11c-1.4-4.6-6.4-7.2-11-5.8c-4.6,1.4-7.2,6.4-5.8,11
			C313.2-337.3,318.1-334.8,322.7-336.2z"/>
		<path class="st1" d="M333.5-563.8c1.4,4.4,6.1,6.9,10.6,5.5c4.4-1.4,6.9-6.1,5.5-10.6c-1.4-4.4-6.1-6.9-10.6-5.5
			C334.6-573,332.2-568.3,333.5-563.8z"/>
		<path class="st1" d="M317.4-197.9c1.9-0.6,3-2.7,2.4-4.6c-0.6-1.9-2.7-3-4.6-2.4c-1.9,0.6-3,2.7-2.4,4.6
			C313.4-198.3,315.4-197.2,317.4-197.9z"/>
		<path class="st1" d="M345.6-273.2c5.8,2.5,12.5-0.2,15-6c2.5-5.8-0.2-12.5-6-15c-5.8-2.5-12.5,0.2-15,6
			C337.1-282.4,339.8-275.7,345.6-273.2z"/>
		<path class="st1" d="M416.1-424.8c2.1,0.9,4.5-0.1,5.4-2.2c0.9-2.1-0.1-4.5-2.2-5.4c-2.1-0.9-4.5,0.1-5.4,2.2
			C413.1-428.1,414.1-425.7,416.1-424.8z"/>
		<path class="st1" d="M374.9-397.2c-2.1-0.9-4.6,0.1-5.5,2.2c-0.9,2.1,0.1,4.6,2.2,5.5c2.1,0.9,4.6-0.1,5.5-2.2
			C378.1-393.8,377.1-396.3,374.9-397.2z"/>
		<path class="st1" d="M446.3-432.7c4.3,1.8,9.2-0.2,11.1-4.5c1.8-4.3-0.2-9.2-4.5-11.1c-4.3-1.8-9.2,0.2-11.1,4.5
			C440-439.5,442-434.5,446.3-432.7z"/>
		<path class="st1" d="M384.4-243c0.7-1.8-0.1-3.8-1.8-4.5c-1.8-0.7-3.8,0.1-4.5,1.8c-0.7,1.8,0.1,3.8,1.8,4.5
			C381.6-240.4,383.6-241.2,384.4-243z"/>
		<path class="st1" d="M539.4-357.5c0.4-1.1,0-2.3-1.1-2.7c-1.1-0.4-2.3,0-2.7,1.1c-0.5,1.1,0,2.3,1.1,2.7
			C537.8-355.9,539-356.4,539.4-357.5z"/>
		<path class="st1" d="M420.1-384.8c5.8,2.5,12.5-0.2,15-6c2.5-5.8-0.2-12.5-6-15c-5.8-2.5-12.5,0.2-15,6
			C411.6-393.9,414.3-387.2,420.1-384.8z"/>
		<path class="st1" d="M458.8-388.2c2.7,1.2,5.9-0.1,7.1-2.8c1.2-2.7-0.1-5.9-2.8-7.1c-2.7-1.2-5.9,0.1-7.1,2.8
			C454.8-392.5,456.1-389.3,458.8-388.2z"/>
		<path class="st1" d="M331.4-424.5c0.6-1.5-0.1-3.1-1.5-3.8c-1.5-0.6-3.1,0.1-3.8,1.5c-0.6,1.5,0.1,3.1,1.5,3.8
			C329.1-422.3,330.8-423,331.4-424.5z"/>
		<path class="st1" d="M340-377.1c-0.5,1.1,0,2.4,1.2,2.9c1.1,0.5,2.4,0,2.9-1.2c0.5-1.1,0-2.4-1.2-2.9
			C341.7-378.7,340.4-378.2,340-377.1z"/>
		<path class="st1" d="M318.9-457.9c-4.6,1.4-7.2,6.4-5.8,11c1.4,4.6,6.4,7.2,11,5.8c4.6-1.4,7.2-6.4,5.8-11
			C328.4-456.8,323.5-459.4,318.9-457.9z"/>
		<path class="st1" d="M73.4-466.2c-2.1-0.9-4.6,0.1-5.5,2.2c-0.9,2.1,0.1,4.6,2.2,5.5c2.1,0.9,4.6-0.1,5.5-2.2
			C76.5-462.8,75.5-465.3,73.4-466.2z"/>
		<path class="st1" d="M345.4-480.3c0.5-1.1,0-2.4-1.2-2.9c-1.1-0.5-2.4,0-2.9,1.2c-0.5,1.1,0,2.4,1.2,2.9
			C343.7-478.7,344.9-479.2,345.4-480.3z"/>
		<path class="st1" d="M218-425.4c-1.7,1.2-2.1,3.6-0.8,5.3c1.2,1.7,3.6,2.1,5.3,0.8c1.7-1.2,2.1-3.6,0.8-5.3
			C222-426.2,219.7-426.6,218-425.4z"/>
		<path class="st1" d="M405.6-482.1c-2.2,0.7-3.5,3.1-2.8,5.3c0.7,2.2,3.1,3.5,5.3,2.8c2.2-0.7,3.5-3.1,2.8-5.3
			C410.2-481.6,407.8-482.8,405.6-482.1z"/>
		<path class="st1" d="M439-518c3.7,1.6,8-0.1,9.5-3.8c1.6-3.7-0.1-8-3.8-9.5c-3.7-1.6-8,0.1-9.5,3.8
			C433.5-523.9,435.3-519.6,439-518z"/>
		<path class="st1" d="M330.2-696.4c1.5,0.6,3.1-0.1,3.8-1.5c0.6-1.5-0.1-3.1-1.5-3.8c-1.5-0.6-3.1,0.1-3.8,1.5
			C328-698.7,328.7-697,330.2-696.4z"/>
		<path class="st1" d="M669.6-745.6c1.1,0.5,2.4,0,2.9-1.2c0.5-1.1,0-2.4-1.2-2.9c-1.1-0.5-2.4,0-2.9,1.2
			C668-747.4,668.5-746.1,669.6-745.6z"/>
		<path class="st1" d="M383.4-531.4c4.6-1.4,7.2-6.4,5.8-11c-1.4-4.6-6.4-7.2-11-5.8c-4.6,1.4-7.2,6.4-5.8,11
			C373.8-532.5,378.7-530,383.4-531.4z"/>
		<path class="st1" d="M550.5-442.7c-5.1-7-15-8.6-22-3.4c-7,5.1-8.6,15-3.4,22c5.1,7,15,8.6,22,3.4
			C554.1-425.8,555.6-435.6,550.5-442.7z"/>
		<path class="st1" d="M484.5-470.4c2.1-4.9-0.2-10.6-5.1-12.7c-4.9-2.1-10.6,0.2-12.7,5.1c-2.1,4.9,0.2,10.6,5.1,12.7
			C476.8-463.2,482.4-465.5,484.5-470.4z"/>
		<path class="st1" d="M501-337.7c2.1,0.9,4.6-0.1,5.5-2.2c0.9-2.1-0.1-4.6-2.2-5.5c-2.1-0.9-4.6,0.1-5.5,2.2
			C497.8-341.1,498.8-338.6,501-337.7z"/>
		<path class="st1" d="M462-305.1c1.1,0.5,2.4,0,2.9-1.2c0.5-1.1,0-2.4-1.2-2.9c-1.1-0.5-2.4,0-2.9,1.2
			C460.4-306.9,460.9-305.6,462-305.1z"/>
		<path class="st1" d="M470.1-344.8c-1.2-1.7-3.6-2.1-5.3-0.8c-1.7,1.2-2.1,3.6-0.8,5.3c1.2,1.7,3.6,2.1,5.3,0.8
			C471-340.7,471.4-343.1,470.1-344.8z"/>
		<path class="st1" d="M545.3-395.9c-1.5-0.6-3.1,0.1-3.8,1.5c-0.6,1.5,0.1,3.1,1.5,3.8c1.5,0.6,3.1-0.1,3.8-1.5
			C547.4-393.6,546.7-395.3,545.3-395.9z"/>
		<path class="st1" d="M635.4-505.6c-0.5,1.1,0,2.4,1.2,2.9c1.1,0.5,2.4,0,2.9-1.2c0.5-1.1,0-2.4-1.2-2.9
			C637.1-507.3,635.9-506.8,635.4-505.6z"/>
		<path class="st1" d="M500.3-380.4c1.4,4.6,6.4,7.2,11,5.8c4.6-1.4,7.2-6.4,5.8-11c-1.4-4.6-6.4-7.2-11-5.8
			C501.4-390,498.8-385,500.3-380.4z"/>
		<path class="st1" d="M290.5-367.5c-1.4-1.9-4-2.3-5.9-0.9c-1.9,1.4-2.3,4-0.9,5.9c1.4,1.9,4,2.3,5.9,0.9
			C291.4-363,291.9-365.7,290.5-367.5z"/>
		<path class="st1" d="M348.9-330.8c1-0.7,1.2-2.1,0.5-3.1c-0.7-1-2.1-1.2-3.1-0.5c-1,0.7-1.2,2.1-0.5,3.1
			C346.6-330.3,348-330.1,348.9-330.8z"/>
		<path class="st1" d="M293.6-335.6c-2.1,0.2-3.6,2-3.4,4.1c0.2,2.1,2,3.6,4.1,3.4c2.1-0.2,3.6-2,3.4-4.1
			C297.5-334.2,295.6-335.8,293.6-335.6z"/>
		<path class="st1" d="M288.6-426.3c-1.3,0.9-1.6,2.7-0.6,4c0.9,1.3,2.7,1.6,4,0.6c1.3-0.9,1.6-2.7,0.6-4
			C291.7-427,289.9-427.3,288.6-426.3z"/>
		<path class="st1" d="M348.4-407.5c1-0.7,1.2-2.1,0.5-3.1c-0.7-1-2.1-1.2-3.1-0.5c-1,0.7-1.2,2.1-0.5,3.1
			C346.1-407,347.5-406.8,348.4-407.5z"/>
		<path class="st1" d="M281.5-391.7c1.1-4.7-1.7-9.5-6.4-10.6c-4.7-1.1-9.5,1.7-10.6,6.4c-1.1,4.7,1.7,9.5,6.4,10.6
			C275.6-384.1,280.3-387,281.5-391.7z"/>
		<path class="st1" d="M318.5-500.9c3.1-2.5,3.6-7.1,1-10.2c-2.5-3.1-7.1-3.6-10.2-1c-3.1,2.5-3.6,7.1-1,10.2
			C310.8-498.8,315.4-498.3,318.5-500.9z"/>
		<path class="st1" d="M247.2-419.9c0.6,1.5,2.2,2.2,3.7,1.7c1.5-0.6,2.2-2.2,1.7-3.7c-0.6-1.5-2.2-2.2-3.7-1.7
			C247.4-423,246.7-421.4,247.2-419.9z"/>
		<path class="st1" d="M275.5-505c3.5-1.3,5.2-5.2,3.9-8.7c-1.3-3.5-5.2-5.2-8.7-3.9c-3.5,1.3-5.2,5.2-3.9,8.7
			C268.1-505.4,272-503.7,275.5-505z"/>
		<path class="st1" d="M264.9-460.7c-0.6,1.7,0.3,3.5,1.9,4.1c1.7,0.6,3.5-0.3,4.1-1.9c0.6-1.7-0.3-3.5-1.9-4.1
			C267.3-463.2,265.5-462.4,264.9-460.7z"/>
		<path class="st1" d="M402.8-746.2c1.1,0.4,2.4-0.2,2.8-1.3c0.4-1.1-0.2-2.4-1.3-2.8c-1.1-0.4-2.4,0.2-2.8,1.3
			C401.1-747.8,401.6-746.6,402.8-746.2z"/>
		<path class="st1" d="M280.6-535c0,0.9,0.7,1.7,1.6,1.7c0.9,0,1.7-0.7,1.7-1.6c0-0.9-0.7-1.7-1.6-1.7
			C281.4-536.6,280.6-535.9,280.6-535z"/>
		<path class="st1" d="M293.8-244.9c-1.3-3.5-5.2-5.2-8.7-3.9c-3.5,1.3-5.2,5.2-3.9,8.7c1.3,3.5,5.2,5.2,8.7,3.9
			C293.4-237.5,295.1-241.4,293.8-244.9z"/>
		<path class="st1" d="M300-471.4c-1.1-1.4-3.2-1.6-4.5-0.5c-1.4,1.1-1.6,3.2-0.5,4.5c1.1,1.4,3.2,1.6,4.5,0.5
			C300.9-468,301.1-470.1,300-471.4z"/>
		<path class="st1" d="M251.9-484.1c0.7-0.6,0.8-1.6,0.2-2.4c-0.6-0.7-1.6-0.8-2.4-0.2c-0.7,0.6-0.8,1.6-0.2,2.4
			C250.1-483.6,251.2-483.5,251.9-484.1z"/>
		<path class="st1" d="M259.2-540.6c-1.6,0.2-2.7,1.7-2.5,3.3c0.2,1.6,1.7,2.7,3.3,2.5c1.6-0.2,2.7-1.7,2.5-3.3
			C262.3-539.7,260.8-540.8,259.2-540.6z"/>
		<path class="st1" d="M361.9-736.2c-0.9,0.8-1.1,2.2-0.3,3.1c0.8,0.9,2.2,1.1,3.1,0.3c0.9-0.8,1.1-2.2,0.3-3.1
			C364.2-736.9,362.8-737,361.9-736.2z"/>
		<path class="st1" d="M183.3-476.1c-0.7,0.6-0.8,1.6-0.2,2.4c0.6,0.7,1.6,0.8,2.4,0.2c0.7-0.6,0.8-1.6,0.2-2.4
			C185.1-476.6,184-476.7,183.3-476.1z"/>
		<path class="st1" d="M363.2-772.7c3.7,0.7,7.2-1.7,7.9-5.4c0.7-3.7-1.7-7.2-5.4-7.9c-3.7-0.7-7.2,1.7-7.9,5.4
			C357.1-776.9,359.5-773.4,363.2-772.7z"/>
		<path class="st1" d="M446.1-608.6c-8.1,3.2-12,12.4-8.8,20.5c3.2,8.1,12.4,12,20.5,8.8c8.1-3.2,12-12.4,8.8-20.5
			C463.4-607.9,454.2-611.8,446.1-608.6z"/>
		<path class="st1" d="M469.2-522c1.9,4.8,7.4,7.2,12.3,5.3c4.8-1.9,7.2-7.4,5.3-12.3c-1.9-4.8-7.4-7.2-12.3-5.3
			C469.6-532.4,467.2-526.9,469.2-522z"/>
		<path class="st1" d="M553.7-638.9c-4.5,1.8-6.7,6.9-4.9,11.4c1.8,4.5,6.9,6.7,11.4,4.9c4.5-1.8,6.7-6.9,4.9-11.4
			C563.3-638.5,558.2-640.7,553.7-638.9z"/>
		<path class="st1" d="M495.2-419c4.3-1.7,6.4-6.6,4.7-11c-1.7-4.3-6.6-6.4-11-4.7c-4.3,1.7-6.4,6.6-4.7,11
			C486-419.4,490.9-417.3,495.2-419z"/>
		<path class="st1" d="M610.8-574.4c1.1-0.4,1.6-1.6,1.2-2.7c-0.4-1.1-1.6-1.6-2.7-1.2c-1.1,0.4-1.6,1.6-1.2,2.7
			C608.5-574.5,609.7-574,610.8-574.4z"/>
		<path class="st1" d="M575.2-477.3c-4.4-1.5-9.2,0.9-10.7,5.3c-1.5,4.4,0.9,9.2,5.3,10.7c4.4,1.5,9.2-0.9,10.7-5.3
			C582-471.1,579.6-475.8,575.2-477.3z"/>
		<path class="st1" d="M596.4-432c-6-2-12.5,1.2-14.5,7.2c-2,6,1.2,12.5,7.2,14.5c6,2,12.5-1.2,14.5-7.2
			C605.6-423.5,602.4-430,596.4-432z"/>
		<path class="st1" d="M571.9-598.1c-1.2,3.6,0.7,7.5,4.3,8.8c3.6,1.2,7.5-0.7,8.8-4.3c1.2-3.6-0.7-7.5-4.3-8.8
			C577.1-603.7,573.1-601.8,571.9-598.1z"/>
		<path class="st1" d="M542-585.1c-6.3,0.3-11.2,5.7-10.8,12c0.3,6.3,5.7,11.2,12,10.8c6.3-0.3,11.2-5.7,10.8-12
			C553.7-580.6,548.4-585.4,542-585.1z"/>
		<path class="st1" d="M621.1-600.5c3.8-0.2,6.7-3.4,6.5-7.2c-0.2-3.8-3.4-6.7-7.2-6.5c-3.8,0.2-6.7,3.4-6.5,7.2
			C614-603.3,617.3-600.3,621.1-600.5z"/>
		<path class="st1" d="M529-528.4c-4.8,0.3-8.5,4.4-8.3,9.2s4.4,8.5,9.2,8.3c4.8-0.3,8.5-4.4,8.3-9.2
			C537.9-524.9,533.8-528.6,529-528.4z"/>
		<path class="st1" d="M318.4-617.7c-4.6,0.2-8.2,4.2-8,8.9c0.2,4.6,4.2,8.2,8.9,8c4.6-0.2,8.2-4.2,8-8.9
			C327-614.4,323.1-618,318.4-617.7z"/>
		<path class="st1" d="M667.4-476.8c2-0.1,3.6-1.8,3.5-3.9c-0.1-2-1.8-3.6-3.9-3.5c-2,0.1-3.6,1.8-3.5,3.9
			C663.7-478.3,665.4-476.7,667.4-476.8z"/>
		<path class="st1" d="M586.7-540.6c-3.8,5-2.9,12.2,2.1,16.1c5,3.8,12.2,2.9,16.1-2.1c3.8-5,2.9-12.2-2.1-16.1
			C597.7-546.6,590.5-545.6,586.7-540.6z"/>
		<path class="st1" d="M469.7-631.8c1.8,1.4,4.4,1,5.7-0.8c1.4-1.8,1-4.4-0.8-5.7c-1.8-1.4-4.4-1-5.7,0.8
			C467.5-635.7,467.9-633.1,469.7-631.8z"/>
		<path class="st1" d="M492-585.8c-1.4,1.8-1.1,4.5,0.8,5.9c1.8,1.4,4.5,1.1,5.9-0.8c1.4-1.8,1.1-4.5-0.8-5.9
			C496-588,493.4-587.6,492-585.8z"/>
		<path class="st1" d="M448.4-659.7c3.7,2.8,9,2.1,11.8-1.6c2.8-3.7,2.1-9-1.6-11.8c-3.7-2.8-9-2.1-11.8,1.6
			C444-667.8,444.7-662.5,448.4-659.7z"/>
		<path class="st1" d="M639.6-551.3c1.5,1.2,3.7,0.9,4.8-0.6c1.2-1.5,0.9-3.7-0.6-4.8c-1.5-1.2-3.7-0.9-4.8,0.6
			C637.8-554.6,638.1-552.4,639.6-551.3z"/>
		<path class="st1" d="M568.6-739c0.9,0.7,2.2,0.5,2.9-0.4c0.7-0.9,0.5-2.2-0.4-2.9c-0.9-0.7-2.2-0.5-2.9,0.4
			C567.5-741,567.7-739.7,568.6-739z"/>
		<path class="st1" d="M513.1-642.4c-5-3.8-12.2-2.9-16,2.1c-3.8,5-2.9,12.2,2.1,16c5,3.8,12.2,2.9,16-2.1
			C519.1-631.5,518.1-638.6,513.1-642.4z"/>
		<path class="st1" d="M514-663.8c2.4,1.8,5.7,1.4,7.5-1c1.8-2.4,1.4-5.7-1-7.5c-2.4-1.8-5.7-1.4-7.5,1
			C511.1-669,511.6-665.6,514-663.8z"/>
		<path class="st1" d="M455.4-546.3c1-1.3,0.7-3.1-0.5-4c-1.3-1-3.1-0.7-4,0.5c-1,1.3-0.7,3.1,0.5,4
			C452.6-544.8,454.4-545.1,455.4-546.3z"/>
		<path class="st1" d="M505.9-547.3c0.7-1,0.5-2.3-0.4-3.1c-1-0.7-2.3-0.6-3.1,0.4c-0.7,1-0.6,2.3,0.4,3.1
			C503.8-546.2,505.2-546.3,505.9-547.3z"/>
		<path class="st1" d="M426.5-545.2c4.8-0.3,8.5-4.4,8.3-9.2c-0.3-4.8-4.4-8.5-9.2-8.3c-4.8,0.3-8.5,4.4-8.3,9.2
			C417.5-548.7,421.7-544.9,426.5-545.2z"/>
		<path class="st1" d="M396.5-613.9c-1.8-1.4-4.5-1.1-5.9,0.8c-1.4,1.8-1.1,4.5,0.8,5.9c1.8,1.4,4.5,1.1,5.9-0.8
			C398.7-609.9,398.4-612.5,396.5-613.9z"/>
		<path class="st1" d="M401.5-574.2c1,0.7,2.3,0.6,3.1-0.4c0.7-1,0.5-2.3-0.4-3.1c-1-0.7-2.3-0.6-3.1,0.4
			C400.3-576.4,400.5-575,401.5-574.2z"/>
		<path class="st1" d="M382.8-579.9c-1.9,0.8-2.9,3-2.1,4.9c0.8,1.9,3,2.9,4.9,2.1c1.9-0.8,2.9-3,2.1-4.9
			C387-579.7,384.8-580.7,382.8-579.9z"/>
		<path class="st1" d="M431-626.4c4.8-0.3,8.5-4.4,8.3-9.2c-0.3-4.8-4.4-8.5-9.2-8.3c-4.8,0.3-8.5,4.4-8.3,9.2
			C422-629.9,426.1-626.1,431-626.4z"/>
		<path class="st1" d="M380.6-676.3c3.2,2.4,7.7,1.8,10.2-1.4c2.4-3.2,1.8-7.7-1.4-10.2c-3.2-2.4-7.7-1.8-10.2,1.4
			C376.8-683.3,377.4-678.8,380.6-676.3z"/>
		<path class="st1" d="M352.4-661.3c1.3,1,3.1,0.7,4-0.5c1-1.3,0.7-3.1-0.5-4c-1.3-1-3.1-0.7-4,0.5
			C350.9-664.1,351.2-662.3,352.4-661.3z"/>
		<path class="st1" d="M403.5-665.5c-0.7,1-0.5,2.3,0.4,3.1c1,0.7,2.3,0.6,3.1-0.4c0.7-1,0.5-2.3-0.4-3.1
			C405.6-666.7,404.3-666.5,403.5-665.5z"/>
		<path class="st1" d="M355.8-617.9c4.8-0.3,8.5-4.4,8.3-9.2c-0.3-4.8-4.4-8.5-9.2-8.3c-4.8,0.3-8.5,4.4-8.3,9.2
			C346.8-621.4,350.9-617.6,355.8-617.9z"/>
		<path class="st1" d="M497.9-692.8c8.1-3.2,12-12.4,8.8-20.5c-3.2-8.1-12.4-12-20.5-8.8c-8.1,3.2-12,12.4-8.8,20.5
			C480.6-693.5,489.8-689.6,497.9-692.8z"/>
		<path class="st1" d="M436.4-694.7c4.2,3.2,10.3,2.4,13.5-1.8c3.2-4.2,2.4-10.3-1.8-13.5c-4.2-3.2-10.3-2.4-13.5,1.8
			C431.4-704,432.2-698,436.4-694.7z"/>
		<path class="st1" d="M574.9-692.4c1.8,1.4,4.5,1.1,5.9-0.8c1.4-1.8,1.1-4.5-0.8-5.9c-1.8-1.4-4.5-1.1-5.9,0.8
			C572.7-696.4,573.1-693.8,574.9-692.4z"/>
		<path class="st1" d="M599.7-646.9c1,0.7,2.3,0.5,3.1-0.4c0.7-1,0.5-2.3-0.4-3.1c-1-0.7-2.3-0.6-3.1,0.4
			C598.5-649.1,598.7-647.7,599.7-646.9z"/>
		<path class="st1" d="M569.1-658.1c1.9-0.8,2.9-3,2.1-4.9c-0.8-1.9-3-2.9-4.9-2.1c-1.9,0.8-2.9,3-2.1,4.9
			C565-658.2,567.2-657.3,569.1-658.1z"/>
		<path class="st1" d="M535.9-753.5c1.3,1,3.1,0.7,4-0.5c1-1.3,0.7-3.1-0.5-4c-1.3-1-3.1-0.7-4,0.5
			C534.4-756.3,534.7-754.4,535.9-753.5z"/>
		<path class="st1" d="M471-730.7c1,0.7,2.3,0.6,3.1-0.4c0.7-1,0.5-2.3-0.4-3.1c-1-0.7-2.3-0.6-3.1,0.4
			C469.9-732.8,470-731.4,471-730.7z"/>
		<path class="st1" d="M538.3-720.6c-4.8,0.3-8.5,4.4-8.3,9.2s4.4,8.5,9.2,8.3c4.8-0.3,8.5-4.4,8.3-9.2
			C547.3-717.1,543.2-720.8,538.3-720.6z"/>
		<path class="st1" d="M499.9-496.6c-2.2,0.9-3.2,3.3-2.4,5.5c0.9,2.2,3.3,3.2,5.5,2.4c2.2-0.9,3.2-3.3,2.4-5.5
			C504.5-496.4,502-497.5,499.9-496.6z"/>
		<path class="st1" d="M547.1-545.4c-1.1,0.4-1.7,1.7-1.2,2.8c0.4,1.1,1.7,1.7,2.8,1.2c1.1-0.4,1.7-1.7,1.2-2.8
			C549.5-545.3,548.2-545.8,547.1-545.4z"/>
		<path class="st1" d="M535.9-494.8c-2.1-0.3-4,1.1-4.3,3.1c-0.3,2.1,1.1,4,3.1,4.3c2.1,0.3,4-1.1,4.3-3.1
			C539.4-492.5,538-494.5,535.9-494.8z"/>
		<path class="st1" d="M602-505c-1.5,0.6-2.2,2.2-1.6,3.7c0.6,1.5,2.2,2.2,3.7,1.6c1.5-0.6,2.2-2.2,1.6-3.7
			C605.2-504.9,603.5-505.6,602-505z"/>
		<path class="st1" d="M476.2-564.8c1.1-0.4,1.7-1.7,1.2-2.8c-0.4-1.1-1.7-1.7-2.8-1.2c-1.1,0.4-1.7,1.7-1.2,2.8
			C473.8-564.9,475.1-564.4,476.2-564.8z"/>
		<path class="st1" d="M634-681.4c4.3,2.3,9.6,0.7,11.9-3.6c2.3-4.3,0.7-9.6-3.6-11.9c-4.3-2.3-9.6-0.7-11.9,3.6
			C628.1-689,629.7-683.7,634-681.4z"/>
		<path class="st1" d="M667.1-615c3.6-1.7,5.2-6,3.5-9.7c-1.7-3.6-6-5.2-9.7-3.5c-3.6,1.7-5.2,6-3.5,9.7
			C659.1-614.9,663.4-613.3,667.1-615z"/>
		<path class="st1" d="M438.4-467.6c1.6-0.2,2.7-1.6,2.5-3.1c-0.2-1.6-1.6-2.7-3.1-2.5c-1.6,0.2-2.7,1.6-2.5,3.1
			C435.4-468.6,436.8-467.5,438.4-467.6z"/>
		<path class="st1" d="M357-508.6c3.7-0.4,6.4-3.7,6-7.5c-0.4-3.7-3.7-6.4-7.5-6c-3.7,0.4-6.4,3.7-6,7.5
			C350-510.9,353.3-508.2,357-508.6z"/>
		<path class="st1" d="M425.4-501.3c-1,1.5-0.6,3.5,0.9,4.5c1.5,1,3.5,0.6,4.5-0.9c1-1.5,0.6-3.5-0.9-4.5
			C428.4-503.2,426.4-502.8,425.4-501.3z"/>
		<path class="st1" d="M360.8-589.2c0.7-1,0.4-2.4-0.6-3.1c-1-0.7-2.4-0.4-3.1,0.6c-0.7,1-0.4,2.4,0.6,3.1
			C358.7-587.9,360.1-588.2,360.8-589.2z"/>
		<path class="st1" d="M336.1-531.6c-0.9-0.3-1.8,0.3-2.1,1.2c-0.3,0.9,0.3,1.8,1.1,2.1c0.9,0.3,1.8-0.3,2.1-1.2
			C337.5-530.5,337-531.4,336.1-531.6z"/>
		<path class="st1" d="M582.5-385.5c-3.7,0.4-6.4,3.7-6,7.5c0.4,3.7,3.7,6.4,7.5,6c3.7-0.4,6.4-3.7,6-7.5
			C589.6-383.2,586.2-385.9,582.5-385.5z"/>
		<path class="st1" d="M404.2-525.6c1.6-0.7,2.3-2.7,1.6-4.3c-0.7-1.6-2.7-2.3-4.3-1.6c-1.6,0.7-2.3,2.7-1.6,4.3
			C400.7-525.6,402.6-524.9,404.2-525.6z"/>
		<path class="st1" d="M376.6-485.8c0.8-0.4,1.2-1.4,0.8-2.2c-0.4-0.8-1.4-1.2-2.2-0.8c-0.8,0.4-1.2,1.4-0.8,2.2
			C374.7-485.8,375.7-485.4,376.6-485.8z"/>
		<path class="st1" d="M31.2-515.5c0.2-1.6-1-3-2.6-3.2c-1.6-0.2-3,1-3.2,2.6c-0.2,1.6,1,3,2.6,3.2
			C29.6-512.7,31.1-513.9,31.2-515.5z"/>
		<path class="st1" d="M285.1-575.9c1.1-0.5,1.6-1.8,1.1-2.9c-0.5-1.1-1.8-1.6-2.9-1.1c-1.1,0.5-1.6,1.8-1.1,2.9
			C282.7-575.9,284-575.4,285.1-575.9z"/>
		<path class="st1" d="M391.3-630.8c-0.8,0.4-1.2,1.4-0.8,2.2c0.4,0.8,1.4,1.2,2.2,0.8c0.8-0.4,1.2-1.4,0.8-2.2
			C393.2-630.8,392.2-631.2,391.3-630.8z"/>
		<path class="st1" d="M297.9-552.2c3.4,1.6,7.4,0.1,9-3.3c1.6-3.4,0.1-7.4-3.3-9c-3.4-1.6-7.4-0.1-9,3.3
			C293-557.8,294.5-553.8,297.9-552.2z"/>
		<path class="st1" d="M461.4-760.7c4.8-3.5,5.9-10.3,2.4-15.2c-3.5-4.8-10.3-5.9-15.2-2.4c-4.8,3.5-5.9,10.3-2.4,15.2
			C449.8-758.3,456.6-757.2,461.4-760.7z"/>
		<path class="st1" d="M576.9-796c2.2-0.7,3.9-2.2,4.9-4H567C568.9-796.5,573-794.7,576.9-796z"/>
		<path class="st1" d="M15.1-242.8c2.1,0.9,4.5-0.1,5.4-2.2c0.9-2.1-0.1-4.5-2.2-5.4c-2.1-0.9-4.5,0.1-5.4,2.2
			C12.1-246.1,13.1-243.7,15.1-242.8z"/>
		<path class="st1" d="M61.3-255.2c1.8-4.3-0.2-9.2-4.5-11.1c-4.3-1.8-9.2,0.2-11.1,4.5c-1.8,4.3,0.2,9.2,4.5,11.1
			C54.5-248.9,59.5-250.9,61.3-255.2z"/>
		<path class="st1" d="M28-223.8c-5.8-2.5-12.5,0.2-15,6c-2.5,5.8,0.2,12.5,6,15c5.8,2.5,12.5-0.2,15-6
			C36.5-214.6,33.8-221.3,28-223.8z"/>
		<path class="st1" d="M9.2-278.6c4.6-1.4,7.2-6.4,5.8-11c-1.4-4.6-6.4-7.2-11-5.8c-1.6,0.5-2.9,1.4-4,2.6v11.6
			C2.2-278.7,5.8-277.6,9.2-278.6z"/>
		<path class="st1" d="M47.5-339.9c1.6-3.7-0.1-8-3.8-9.5c-3.7-1.6-8,0.1-9.5,3.8c-1.6,3.7,0.1,8,3.8,9.5
			C41.6-334.5,45.9-336.2,47.5-339.9z"/>
		<path class="st1" d="M26.5-319.5c-0.5,1.1,0,2.4,1.2,2.9c1.1,0.5,2.4,0,2.9-1.2c0.5-1.1,0-2.4-1.2-2.9
			C28.2-321.1,26.9-320.6,26.5-319.5z"/>
		<path class="st1" d="M554.5-756.5c4.6-1.4,7.2-6.4,5.8-11c-1.4-4.6-6.4-7.2-11-5.8c-4.6,1.4-7.2,6.4-5.8,11
			C544.9-757.6,549.8-755,554.5-756.5z"/>
		<path class="st1" d="M107.1-228.7c7-5.1,8.6-15,3.4-22c-5.1-7-15-8.6-22-3.4c-7,5.1-8.6,15-3.4,22
			C90.2-225.1,100-223.5,107.1-228.7z"/>
		<path class="st1" d="M75.9-283.3c4.9,2.1,10.6-0.2,12.7-5.1c2.1-4.9-0.2-10.6-5.1-12.7c-4.9-2.1-10.6,0.2-12.7,5.1
			C68.7-291.1,71-285.4,75.9-283.3z"/>
		<path class="st1" d="M419.6-797.2c0.7,1,2.1,1.2,3.1,0.5c1-0.7,1.2-2.1,0.5-3.1c-0.1-0.1-0.2-0.2-0.2-0.3h-3
			C419.1-799.3,418.9-798,419.6-797.2z"/>
		<path class="st1" d="M70.6-417.8c-3.2-8.1-12.4-12-20.5-8.8c-8.1,3.2-12,12.4-8.8,20.5c3.2,8.1,12.4,12,20.5,8.8
			C69.9-400.6,73.8-409.7,70.6-417.8z"/>
		<path class="st1" d="M78.4-352.3c-4.8,1.9-7.2,7.4-5.3,12.3c1.9,4.8,7.4,7.2,12.3,5.3c4.8-1.9,7.2-7.4,5.3-12.3
			C88.8-351.9,83.3-354.3,78.4-352.3z"/>
		<path class="st1" d="M164.2-440.6c4.5-1.8,6.7-6.9,4.9-11.4c-1.8-4.5-6.9-6.7-11.4-4.9c-4.5,1.8-6.7,6.9-4.9,11.4
			C154.6-441,159.7-438.8,164.2-440.6z"/>
		<path class="st1" d="M113.9-277c1.7,4.3-0.4,9.2-4.7,11c-4.3,1.7-9.2-0.4-11-4.7c-1.7-4.3,0.4-9.2,4.7-11
			C107.3-283.4,112.2-281.3,113.9-277z M108.5-266.8c1.1,0.5,2.4,0,2.9-1.2c0.5-1.1,0-2.4-1.2-2.9c-1.1-0.5-2.4,0-2.9,1.2
			C106.9-268.5,107.4-267.2,108.5-266.8z"/>
		<path class="st1" d="M108.5-266.8c1.1,0.5,2.4,0,2.9-1.2c0.5-1.1,0-2.4-1.2-2.9c-1.1-0.5-2.4,0-2.9,1.2
			C106.9-268.5,107.4-267.2,108.5-266.8z"/>
		<path class="st1" d="M173.8-279.4c4.4,1.5,9.2-0.9,10.7-5.3c1.5-4.4-0.9-9.2-5.3-10.7c-4.4-1.5-9.2,0.9-10.7,5.3
			C167-285.6,169.4-280.8,173.8-279.4z"/>
		<path class="st1" d="M162.1-239.3c6,2,12.5-1.2,14.5-7.2c2-6-1.2-12.5-7.2-14.5c-6-2-12.5,1.2-14.5,7.2
			C152.8-247.8,156.1-241.3,162.1-239.3z"/>
		<path class="st1" d="M189-411.7c1.2-3.6-0.7-7.5-4.3-8.8c-3.6-1.2-7.5,0.7-8.8,4.3c-1.2,3.6,0.7,7.5,4.3,8.8
			C183.9-406.2,187.8-408.1,189-411.7z"/>
		<path class="st1" d="M158.1-392.3c-0.3-6.3-5.7-11.2-12-10.8c-6.3,0.3-11.2,5.7-10.8,12c0.3,6.3,5.7,11.2,12,10.8
			C153.6-380.5,158.4-385.9,158.1-392.3z"/>
		<path class="st1" d="M142.2-338.1c-0.3-4.8-4.4-8.5-9.2-8.3c-4.8,0.3-8.5,4.4-8.3,9.2c0.3,4.8,4.4,8.5,9.2,8.3
			C138.7-329.1,142.4-333.2,142.2-338.1z"/>
		<path class="st1" d="M208.9-344.7c3.8-5,2.9-12.2-2.1-16.1c-5-3.8-12.2-2.9-16.1,2.1c-3.8,5-2.9,12.2,2.1,16.1
			C197.9-338.7,205.1-339.7,208.9-344.7z"/>
		<path class="st1" d="M101.9-404.6c-1.8-1.4-4.5-1.1-5.9,0.8c-1.4,1.8-1.1,4.5,0.8,5.9c1.8,1.4,4.5,1.1,5.9-0.8
			C104.1-400.5,103.7-403.2,101.9-404.6z"/>
		<path class="st1" d="M119.2-444.4c3.8-5,2.9-12.2-2.1-16c-5-3.8-12.2-2.9-16,2.1c-3.8,5-2.9,12.2,2.1,16
			C108.2-438.5,115.4-439.4,119.2-444.4z"/>
		<path class="st1" d="M54.8-367.8c-1,1.3-0.7,3.1,0.5,4c1.3,1,3.1,0.7,4-0.5c1-1.3,0.7-3.1-0.5-4C57.6-369.3,55.8-369.1,54.8-367.8
			z"/>
		<path class="st1" d="M109.5-368.4c-1-0.7-2.3-0.5-3.1,0.4c-0.7,1-0.6,2.3,0.4,3.1c1,0.7,2.3,0.6,3.1-0.4
			C110.7-366.3,110.5-367.6,109.5-368.4z"/>
		<path class="st1" d="M33.8-372.4c-0.3-4.8-4.4-8.5-9.2-8.3c-4.8,0.3-8.5,4.4-8.3,9.2c0.3,4.8,4.4,8.5,9.2,8.3
			C30.3-363.5,34.1-367.6,33.8-372.4z"/>
		<path class="st1" d="M11.5-494.9c-1.8-1.4-4.5-1.1-5.9,0.8c-1.4,1.8-1.1,4.5,0.8,5.9c1.8,1.4,4.5,1.1,5.9-0.8
			C13.7-490.9,13.4-493.5,11.5-494.9z"/>
		<path class="st1" d="M0.5-392.2c1,0.7,2.3,0.6,3.1-0.4c0.7-1,0.5-2.3-0.4-3.1c-1-0.7-2.3-0.5-3.1,0.4c0,0-0.1,0.1-0.1,0.1v2.4
			C0.1-392.6,0.3-392.4,0.5-392.2z"/>
		<path class="st1" d="M589.9-757.9c1.9-0.8,2.9-3,2.1-4.9c-0.8-1.9-3-2.9-4.9-2.1c-1.9,0.8-2.9,3-2.1,4.9
			C585.7-758,587.9-757.1,589.9-757.9z"/>
		<path class="st1" d="M20.7-452.7c0.3,4.8,4.4,8.5,9.2,8.3c4.8-0.3,8.5-4.4,8.3-9.2c-0.3-4.8-4.4-8.5-9.2-8.3
			C24.2-461.7,20.5-457.5,20.7-452.7z"/>
		<path class="st1" d="M639.2-781.6c4.8-0.3,8.5-4.4,8.3-9.2c-0.3-4.8-4.4-8.5-9.2-8.3c-4.8,0.3-8.5,4.4-8.3,9.2
			C630.2-785,634.4-781.3,639.2-781.6z"/>
		<path class="st1" d="M103.9-314.6c-2.2,0.9-3.2,3.3-2.4,5.5c0.9,2.2,3.3,3.2,5.5,2.4c2.2-0.9,3.2-3.3,2.4-5.5
			C108.5-314.4,106-315.5,103.9-314.6z"/>
		<path class="st1" d="M151.1-363.4c-1.1,0.4-1.7,1.7-1.2,2.8c0.4,1.1,1.7,1.7,2.8,1.2c1.1-0.4,1.7-1.7,1.2-2.8
			C153.5-363.3,152.2-363.8,151.1-363.4z"/>
		<path class="st1" d="M143-308.5c0.3-2.1-1.1-4-3.1-4.3c-2.1-0.3-4,1.1-4.3,3.1c-0.3,2.1,1.1,4,3.1,4.3
			C140.7-305,142.7-306.4,143-308.5z"/>
		<path class="st1" d="M78.6-386.9c-1.1,0.4-1.7,1.7-1.2,2.8c0.4,1.1,1.7,1.7,2.8,1.2c1.1-0.4,1.7-1.7,1.2-2.8
			C81-386.8,79.7-387.3,78.6-386.9z"/>
		<path class="st1" d="M37.4-285.6c1.6-0.2,2.7-1.6,2.5-3.1c-0.2-1.6-1.6-2.7-3.1-2.5c-1.6,0.2-2.7,1.6-2.5,3.1
			C34.4-286.6,35.8-285.5,37.4-285.6z"/>
		<path class="st1" d="M528.1-782.6c3.7-0.4,6.4-3.7,6-7.5c-0.4-3.7-3.7-6.4-7.5-6c-3.7,0.4-6.4,3.7-6,7.5
			C521.1-784.9,524.4-782.2,528.1-782.6z"/>
		<path class="st1" d="M5.9-318.2c-1.5-1-3.5-0.6-4.5,0.9c-1,1.5-0.6,3.5,0.9,4.5c1.5,1,3.5,0.6,4.5-0.9
			C7.8-315.1,7.4-317.2,5.9-318.2z"/>
		<path class="st1" d="M601.2-784.8c1,0.7,2.4,0.4,3.1-0.6c0.7-1,0.4-2.4-0.6-3.1c-1-0.7-2.4-0.4-3.1,0.6
			C600-786.9,600.2-785.5,601.2-784.8z"/>
		<path class="st1" d="M3.2-343.6c1.6-0.8,2.3-2.7,1.6-4.3c-0.7-1.6-2.7-2.3-4.3-1.6c-0.2,0.1-0.4,0.2-0.5,0.3v5.2
			C0.9-343.3,2.1-343.1,3.2-343.6z"/>
		<path class="st1" d="M500.1-768.2c0.8-0.4,1.2-1.4,0.8-2.2c-0.4-0.8-1.4-1.2-2.2-0.8c-0.8,0.4-1.2,1.4-0.8,2.2
			C498.2-768.2,499.2-767.8,500.1-768.2z"/>
		<path class="st1" d="M449.7-92.8c-4.8,3.5-5.9,10.3-2.4,15.2c3.5,4.8,10.3,5.9,15.2,2.4c4.8-3.5,5.9-10.3,2.4-15.2
			C461.3-95.2,454.6-96.3,449.7-92.8z"/>
		<path class="st1" d="M429.6-209.9c-1.4-4.4-6.1-6.9-10.6-5.5c-4.4,1.4-6.9,6.1-5.5,10.6c1.4,4.4,6.1,6.9,10.6,5.5
			C428.5-200.7,431-205.4,429.6-209.9z"/>
		<path class="st1" d="M499.3-73.4c-2.1-0.9-4.5,0.1-5.4,2.2c-0.9,2.1,0.1,4.5,2.2,5.4c2.1,0.9,4.5-0.1,5.4-2.2
			C502.4-70.1,501.4-72.5,499.3-73.4z"/>
		<path class="st1" d="M532.9-89.2c-4.3-1.8-9.2,0.2-11.1,4.5c-1.8,4.3,0.2,9.2,4.5,11.1c4.3,1.8,9.2-0.2,11.1-4.5
			C539.1-82.4,537.1-87.4,532.9-89.2z"/>
		<path class="st1" d="M210.1-230.7c-2.5,5.8,0.2,12.5,6,15c5.8,2.5,12.5-0.2,15-6c2.5-5.8-0.2-12.5-6-15
			C219.2-239.2,212.5-236.5,210.1-230.7z"/>
		<path class="st1" d="M496-112.6c-1.4-4.6-6.4-7.2-11-5.8c-4.6,1.4-7.2,6.4-5.8,11c1.4,4.6,6.4,7.2,11,5.8
			C494.8-103.1,497.4-108,496-112.6z"/>
		<path class="st1" d="M519-159c3.7,1.6,8-0.1,9.5-3.8c1.6-3.7-0.1-8-3.8-9.5c-3.7-1.6-8,0.1-9.5,3.8
			C513.5-164.9,515.3-160.6,519-159z"/>
		<path class="st1" d="M510.3-143.6c-1.1-0.5-2.4,0-2.9,1.2c-0.5,1.1,0,2.4,1.2,2.9c1.1,0.5,2.4,0,2.9-1.2
			C512-141.9,511.4-143.2,510.3-143.6z"/>
		<path class="st1" d="M458.1-189.2c-4.6,1.4-7.2,6.4-5.8,11c1.4,4.6,6.4,7.2,11,5.8c4.6-1.4,7.2-6.4,5.8-11
			C467.7-188,462.8-190.6,458.1-189.2z"/>
		<path class="st1" d="M564.5-77.1c-7,5.1-8.6,15-3.4,22c5.1,7,15,8.6,22,3.4c7-5.1,8.6-15,3.4-22C581.4-80.7,571.5-82.2,564.5-77.1
			z"/>
		<path class="st1" d="M564.5-111.4c2.1-4.9-0.2-10.6-5.1-12.7c-4.9-2.1-10.6,0.2-12.7,5.1c-2.1,4.9,0.2,10.6,5.1,12.7
			C556.8-104.2,562.4-106.5,564.5-111.4z"/>
		<path class="st1" d="M425.9-52.1c-1,0.7-1.2,2.1-0.5,3.1c0.7,1,2.1,1.2,3.1,0.5c1-0.7,1.2-2.1,0.5-3.1
			C428.2-52.6,426.9-52.8,425.9-52.1z"/>
		<path class="st1" d="M546.6-240.8c-3.2-8.1-12.4-12-20.5-8.8c-8.1,3.2-12,12.4-8.8,20.5c3.2,8.1,12.4,12,20.5,8.8
			C545.9-223.6,549.8-232.7,546.6-240.8z"/>
		<path class="st1" d="M561.5-157.8c4.8-1.9,7.2-7.4,5.3-12.3c-1.9-4.8-7.4-7.2-12.3-5.3c-4.8,1.9-7.2,7.4-5.3,12.3
			C551.1-158.2,556.6-155.8,561.5-157.8z"/>
		<path class="st1" d="M645.1-275c-1.8-4.5-6.9-6.7-11.4-4.9c-4.5,1.8-6.7,6.9-4.9,11.4c1.8,4.5,6.9,6.7,11.4,4.9
			C644.7-265.4,646.9-270.5,645.1-275z"/>
		<path class="st1" d="M589.9-100c1.7,4.3-0.4,9.2-4.7,11c-4.3,1.7-9.2-0.4-11-4.7c-1.7-4.3,0.4-9.2,4.7-11
			C583.3-106.4,588.2-104.3,589.9-100z M586.3-93.8c-1.1-0.5-2.4,0-2.9,1.2c-0.5,1.1,0,2.4,1.2,2.9c1.1,0.5,2.4,0,2.9-1.2
			C587.9-92,587.4-93.3,586.3-93.8z"/>
		<path class="st1" d="M586.3-93.8c-1.1-0.5-2.4,0-2.9,1.2c-0.5,1.1,0,2.4,1.2,2.9c1.1,0.5,2.4,0,2.9-1.2
			C587.9-92,587.4-93.3,586.3-93.8z"/>
		<path class="st1" d="M655.2-118.3c-4.4-1.5-9.2,0.9-10.7,5.3c-1.5,4.4,0.9,9.2,5.3,10.7c4.4,1.5,9.2-0.9,10.7-5.3
			C662-112.1,659.6-116.8,655.2-118.3z"/>
		<path class="st1" d="M645.4-84c-6-2-12.5,1.2-14.5,7.2c-2,6,1.2,12.5,7.2,14.5c6,2,12.5-1.2,14.5-7.2
			C654.6-75.5,651.4-82,645.4-84z"/>
		<path class="st1" d="M665.9-226.1c-1.2,3.6,0.7,7.5,4.3,8.8c3.6,1.2,7.5-0.7,8.8-4.3c1.2-3.6-0.7-7.5-4.3-8.8
			S667.1-229.8,665.9-226.1z"/>
		<path class="st1" d="M634.1-215.3c-0.3-6.3-5.7-11.2-12-10.8c-6.3,0.3-11.2,5.7-10.8,12c0.3,6.3,5.7,11.2,12,10.8
			C629.6-203.5,634.4-208.9,634.1-215.3z"/>
		<path class="st1" d="M618.2-161.1c-0.3-4.8-4.4-8.5-9.2-8.3c-4.8,0.3-8.5,4.4-8.3,9.2c0.3,4.8,4.4,8.5,9.2,8.3
			C614.7-152.1,618.4-156.2,618.2-161.1z"/>
		<path class="st1" d="M684.9-167.7c3.8-5,2.9-12.2-2.1-16.1c-5-3.8-12.2-2.9-16.1,2.1c-3.8,5-2.9,12.2,2.1,16.1
			C673.9-161.7,681.1-162.7,684.9-167.7z"/>
		<path class="st1" d="M577.9-227.6c-1.8-1.4-4.5-1.1-5.9,0.8c-1.4,1.8-1.1,4.5,0.8,5.9c1.8,1.4,4.5,1.1,5.9-0.8
			C580.1-223.5,579.7-226.2,577.9-227.6z"/>
		<path class="st1" d="M593.1-283.4c-5-3.8-12.2-2.9-16,2.1c-3.8,5-2.9,12.2,2.1,16c5,3.8,12.2,2.9,16-2.1
			C599.1-272.5,598.1-279.6,593.1-283.4z"/>
		<path class="st1" d="M535.4-187.3c1-1.3,0.7-3.1-0.5-4c-1.3-1-3.1-0.7-4,0.5c-1,1.3-0.7,3.1,0.5,4
			C532.6-185.8,534.4-186.1,535.4-187.3z"/>
		<path class="st1" d="M585.9-188.3c0.7-1,0.5-2.3-0.4-3.1c-1-0.7-2.3-0.5-3.1,0.4c-0.7,1-0.6,2.3,0.4,3.1
			C583.8-187.2,585.2-187.3,585.9-188.3z"/>
		<path class="st1" d="M514.8-195.4c-0.3-4.8-4.4-8.5-9.2-8.3c-4.8,0.3-8.5,4.4-8.3,9.2c0.3,4.8,4.4,8.5,9.2,8.3
			C511.3-186.5,515.1-190.6,514.8-195.4z"/>
		<path class="st1" d="M476.5-254.9c-1.8-1.4-4.5-1.1-5.9,0.8c-1.4,1.8-1.1,4.5,0.8,5.9c1.8,1.4,4.5,1.1,5.9-0.8
			C478.7-250.9,478.4-253.5,476.5-254.9z"/>
		<path class="st1" d="M481.1-218.3c-0.7,1-0.5,2.3,0.4,3.1c1,0.7,2.3,0.6,3.1-0.4c0.7-1,0.5-2.3-0.4-3.1
			C483.2-219.5,481.8-219.3,481.1-218.3z"/>
		<path class="st1" d="M465.6-213.9c1.9-0.8,2.9-3,2.1-4.9c-0.8-1.9-3-2.9-4.9-2.1c-1.9,0.8-2.9,3-2.1,4.9
			C461.5-214.1,463.7-213.1,465.6-213.9z"/>
		<path class="st1" d="M511-267.4c4.8-0.3,8.5-4.4,8.3-9.2c-0.3-4.8-4.4-8.5-9.2-8.3c-4.8,0.3-8.5,4.4-8.3,9.2
			C502-270.9,506.1-267.1,511-267.4z"/>
		<path class="st1" d="M434.8-276.4c-4.8,0.3-8.5,4.4-8.3,9.2c0.3,4.8,4.4,8.5,9.2,8.3c4.8-0.3,8.5-4.4,8.3-9.2
			C443.8-273,439.7-276.7,434.8-276.4z"/>
		<path class="st1" d="M579.9-137.6c-2.2,0.9-3.2,3.3-2.4,5.5c0.9,2.2,3.3,3.2,5.5,2.4c2.2-0.9,3.2-3.3,2.4-5.5
			C584.5-137.4,582-138.5,579.9-137.6z"/>
		<path class="st1" d="M627.1-186.4c-1.1,0.4-1.7,1.7-1.2,2.8c0.4,1.1,1.7,1.7,2.8,1.2c1.1-0.4,1.7-1.7,1.2-2.8
			C629.5-186.3,628.2-186.8,627.1-186.4z"/>
		<path class="st1" d="M615.9-135.8c-2.1-0.3-4,1.1-4.3,3.1c-0.3,2.1,1.1,4,3.1,4.3c2.1,0.3,4-1.1,4.3-3.1
			C619.4-133.5,618-135.5,615.9-135.8z"/>
		<path class="st1" d="M553.4-207.1c0.4,1.1,1.7,1.7,2.8,1.2c1.1-0.4,1.7-1.7,1.2-2.8c-0.4-1.1-1.7-1.7-2.8-1.2
			C553.5-209.4,552.9-208.2,553.4-207.1z"/>
		<path class="st1" d="M518.4-108.6c1.6-0.2,2.7-1.6,2.5-3.1c-0.2-1.6-1.6-2.7-3.1-2.5c-1.6,0.2-2.7,1.6-2.5,3.1
			C515.4-109.6,516.8-108.5,518.4-108.6z"/>
		<path class="st1" d="M435.5-163c-3.7,0.4-6.4,3.7-6,7.5c0.4,3.7,3.7,6.4,7.5,6c3.7-0.4,6.4-3.7,6-7.5
			C442.6-160.8,439.2-163.4,435.5-163z"/>
		<path class="st1" d="M483.3-135.8c1.5,1,3.5,0.6,4.5-0.9c1-1.5,0.6-3.5-0.9-4.5c-1.5-1-3.5-0.6-4.5,0.9
			C481.4-138.8,481.8-136.8,483.3-135.8z"/>
		<path class="st1" d="M440.8-230.2c0.7-1,0.4-2.4-0.6-3.1c-1-0.7-2.4-0.4-3.1,0.6c-0.7,1-0.4,2.4,0.6,3.1
			C438.7-228.9,440.1-229.2,440.8-230.2z"/>
		<path class="st1" d="M484.2-166.6c1.6-0.8,2.3-2.7,1.6-4.3c-0.7-1.6-2.7-2.3-4.3-1.6c-1.6,0.7-2.3,2.7-1.6,4.3
			C480.7-166.6,482.6-165.9,484.2-166.6z"/>
		<path class="st1" d="M456.6-126.8c0.8-0.4,1.2-1.4,0.8-2.2c-0.4-0.8-1.4-1.2-2.2-0.8c-0.8,0.4-1.2,1.4-0.8,2.2
			C454.7-126.8,455.7-126.4,456.6-126.8z"/>
		<path class="st1" d="M678.7-272.8c-4.8,3.5-5.9,10.3-2.4,15.2c3.5,4.8,10.3,5.9,15.2,2.4c4.8-3.5,5.9-10.3,2.4-15.2
			C690.3-275.2,683.6-276.3,678.7-272.8z"/>
		<path class="st1" d="M530.5-317.8c1.4,4.4,6.1,6.9,10.6,5.5c4.4-1.4,6.9-6.1,5.5-10.6c-1.4-4.4-6.1-6.9-10.6-5.5
			C531.6-327,529.2-322.3,530.5-317.8z"/>
		<path class="st1" d="M709-261.2c-0.9,2.1,0.1,4.5,2.2,5.4c2.1,0.9,4.5-0.1,5.4-2.2c0.9-2.1-0.1-4.5-2.2-5.4
			C712.3-264.2,709.9-263.3,709-261.2z"/>
		<path class="st1" d="M736.8-274.8c-1.8,4.3,0.2,9.2,4.5,11.1c4.3,1.8,9.2-0.2,11.1-4.5c1.8-4.3-0.2-9.2-4.5-11.1
			C743.6-281,738.6-279,736.8-274.8z"/>
		<path class="st1" d="M755.1-209.8c2.5-5.8-0.2-12.5-6-15c-5.8-2.5-12.5,0.2-15,6c-2.5,5.8,0.2,12.5,6,15
			C745.9-201.3,752.6-204,755.1-209.8z"/>
		<path class="st1" d="M705.2-291.6c4.6-1.4,7.2-6.4,5.8-11c-1.4-4.6-6.4-7.2-11-5.8c-4.6,1.4-7.2,6.4-5.8,11
			C695.7-292.8,700.6-290.2,705.2-291.6z"/>
		<path class="st1" d="M705-365c3.7,1.6,8-0.1,9.5-3.8c1.6-3.7-0.1-8-3.8-9.5c-3.7-1.6-8,0.1-9.5,3.8
			C699.5-370.9,701.3-366.6,705-365z"/>
		<path class="st1" d="M722.5-332.5c-0.5,1.1,0,2.4,1.2,2.9c1.1,0.5,2.4,0,2.9-1.2c0.5-1.1,0-2.4-1.2-2.9
			C724.2-334.1,722.9-333.6,722.5-332.5z"/>
		<path class="st1" d="M639.4-321.4c4.6-1.4,7.2-6.4,5.8-11c-1.4-4.6-6.4-7.2-11-5.8c-4.6,1.4-7.2,6.4-5.8,11
			C629.8-322.5,634.7-320,639.4-321.4z"/>
		<path class="st1" d="M774.4-314.1c-4.9-2.1-10.6,0.2-12.7,5.1c-2.1,4.9,0.2,10.6,5.1,12.7c4.9,2.1,10.6-0.2,12.7-5.1
			C781.6-306.3,779.3-312,774.4-314.1z"/>
		<path class="st1" d="M640.9-242.1c-1,0.7-1.2,2.1-0.5,3.1c0.7,1,2.1,1.2,3.1,0.5c1-0.7,1.2-2.1,0.5-3.1
			C643.2-242.6,641.9-242.8,640.9-242.1z"/>
		<path class="st1" d="M761.6-430.8c-3.2-8.1-12.4-12-20.5-8.8c-8.1,3.2-12,12.4-8.8,20.5c3.2,8.1,12.4,12,20.5,8.8
			C760.9-413.6,764.8-422.7,761.6-430.8z"/>
		<path class="st1" d="M769.4-365.3c-4.8,1.9-7.2,7.4-5.3,12.3c1.9,4.8,7.4,7.2,12.3,5.3c4.8-1.9,7.2-7.4,5.3-12.3
			C779.8-364.9,774.3-367.3,769.4-365.3z"/>
		<path class="st1" d="M723.2-695.6c4.5-1.8,6.7-6.9,4.9-11.4c-1.8-4.5-6.9-6.7-11.4-4.9c-4.5,1.8-6.7,6.9-4.9,11.4
			C713.6-696,718.7-693.8,723.2-695.6z"/>
		<path class="st1" d="M732.8-534.4c4.4,1.5,9.2-0.9,10.7-5.3c1.5-4.4-0.9-9.2-5.3-10.7c-4.4-1.5-9.2,0.9-10.7,5.3
			C726-540.6,728.4-535.8,732.8-534.4z"/>
		<path class="st1" d="M728.4-516c-6-2-12.5,1.2-14.5,7.2c-2,6,1.2,12.5,7.2,14.5c6,2,12.5-1.2,14.5-7.2
			C737.6-507.5,734.4-514,728.4-516z"/>
		<path class="st1" d="M739.2-662.4c3.6,1.2,7.5-0.7,8.8-4.3c1.2-3.6-0.7-7.5-4.3-8.8c-3.6-1.2-7.5,0.7-8.8,4.3
			C733.7-667.5,735.6-663.6,739.2-662.4z"/>
		<path class="st1" d="M705-658.1c-6.3,0.3-11.2,5.7-10.8,12c0.3,6.3,5.7,11.2,12,10.8c6.3-0.3,11.2-5.7,10.8-12
			C716.7-653.6,711.4-658.4,705-658.1z"/>
		<path class="st1" d="M692.9-583.9c4.8-0.3,8.5-4.4,8.3-9.2c-0.3-4.8-4.4-8.5-9.2-8.3c-4.8,0.3-8.5,4.4-8.3,9.2
			C683.9-587.3,688.1-583.6,692.9-583.9z"/>
		<path class="st1" d="M751.8-597.6c5,3.8,12.2,2.9,16.1-2.1c3.8-5,2.9-12.2-2.1-16.1c-5-3.8-12.2-2.9-16.1,2.1
			C745.9-608.6,746.8-601.4,751.8-597.6z"/>
		<path class="st1" d="M750.4-377.3c1-1.3,0.7-3.1-0.5-4c-1.3-1-3.1-0.7-4,0.5c-1,1.3-0.7,3.1,0.5,4
			C747.6-375.8,749.4-376.1,750.4-377.3z"/>
		<path class="st1" d="M672.5-521.2c4.8-0.3,8.5-4.4,8.3-9.2c-0.3-4.8-4.4-8.5-9.2-8.3c-4.8,0.3-8.5,4.4-8.3,9.2
			C663.5-524.7,667.7-520.9,672.5-521.2z"/>
		<path class="st1" d="M691.5-444.9c-1.8-1.4-4.5-1.1-5.9,0.8c-1.4,1.8-1.1,4.5,0.8,5.9c1.8,1.4,4.5,1.1,5.9-0.8
			C693.7-440.9,693.4-443.5,691.5-444.9z"/>
		<path class="st1" d="M696.1-408.3c-0.7,1-0.5,2.3,0.4,3.1c1,0.7,2.3,0.6,3.1-0.4c0.7-1,0.5-2.3-0.4-3.1
			C698.2-409.5,696.8-409.3,696.1-408.3z"/>
		<path class="st1" d="M677.8-410.9c-1.9,0.8-2.9,3-2.1,4.9c0.8,1.9,3,2.9,4.9,2.1c1.9-0.8,2.9-3,2.1-4.9
			C682-410.7,679.8-411.7,677.8-410.9z"/>
		<path class="st1" d="M734.3-466.6c-0.3-4.8-4.4-8.5-9.2-8.3c-4.8,0.3-8.5,4.4-8.3,9.2c0.3,4.8,4.4,8.5,9.2,8.3
			C730.8-457.7,734.5-461.8,734.3-466.6z"/>
		<path class="st1" d="M622.8-449.9c4.8-0.3,8.5-4.4,8.3-9.2c-0.3-4.8-4.4-8.5-9.2-8.3c-4.8,0.3-8.5,4.4-8.3,9.2
			C613.8-453.4,617.9-449.6,622.8-449.9z"/>
		<path class="st1" d="M710.1-618.4c-1.1,0.4-1.7,1.7-1.2,2.8c0.4,1.1,1.7,1.7,2.8,1.2c1.1-0.4,1.7-1.7,1.2-2.8
			C712.5-618.3,711.2-618.8,710.1-618.4z"/>
		<path class="st1" d="M702-563.5c0.3-2.1-1.1-4-3.1-4.3c-2.1-0.3-4,1.1-4.3,3.1c-0.3,2.1,1.1,4,3.1,4.3
			C699.7-560,701.7-561.4,702-563.5z"/>
		<path class="st1" d="M769.6-399.9c-1.1,0.4-1.7,1.7-1.2,2.8c0.4,1.1,1.7,1.7,2.8,1.2c1.1-0.4,1.7-1.7,1.2-2.8
			C772-399.8,770.7-400.3,769.6-399.9z"/>
		<path class="st1" d="M735.9-301.8c-0.2-1.6-1.6-2.7-3.1-2.5c-1.6,0.2-2.7,1.6-2.5,3.1c0.2,1.6,1.6,2.7,3.1,2.5
			C735-298.8,736.1-300.2,735.9-301.8z"/>
		<path class="st1" d="M583.5-339c-3.7,0.4-6.4,3.7-6,7.5c0.4,3.7,3.7,6.4,7.5,6c3.7-0.4,6.4-3.7,6-7.5
			C590.6-336.8,587.2-339.4,583.5-339z"/>
		<path class="st1" d="M627.9-387.2c-1.5-1-3.5-0.6-4.5,0.9c-1,1.5-0.6,3.5,0.9,4.5c1.5,1,3.5,0.6,4.5-0.9
			C629.8-384.1,629.4-386.2,627.9-387.2z"/>
		<path class="st1" d="M645.1-434.7c-0.7,1-0.4,2.4,0.6,3.1c1,0.7,2.4,0.4,3.1-0.6c0.7-1,0.4-2.4-0.6-3.1
			C647.2-435.9,645.8-435.7,645.1-434.7z"/>
		<path class="st1" d="M668.2-362.6c1.6-0.8,2.3-2.7,1.6-4.3c-0.7-1.6-2.7-2.3-4.3-1.6c-1.6,0.7-2.3,2.7-1.6,4.3
			C664.7-362.6,666.6-361.9,668.2-362.6z"/>
		<path class="st1" d="M671.6-316.8c0.8-0.4,1.2-1.4,0.8-2.2c-0.4-0.8-1.4-1.2-2.2-0.8c-0.8,0.4-1.2,1.4-0.8,2.2
			C669.7-316.8,670.7-316.4,671.6-316.8z"/>
		<path class="st1" d="M771.1-48.1c-1.9,1.2-2.6,3.7-1.4,5.6c1.2,1.9,3.7,2.6,5.6,1.4c1.9-1.2,2.6-3.7,1.4-5.6
			C775.5-48.6,773-49.2,771.1-48.1z"/>
		<path class="st1" d="M732.8-46.1c-4,2.4-5.3,7.6-2.9,11.6c2.4,4,7.6,5.3,11.6,2.9c4-2.4,5.3-7.6,2.9-11.6
			C741.9-47.2,736.7-48.5,732.8-46.1z"/>
		<path class="st1" d="M718.9-170.1c1-0.6,1.3-1.9,0.7-2.8c-0.6-1-1.9-1.3-2.8-0.7c-1,0.6-1.3,1.9-0.7,2.8
			C716.6-169.9,717.9-169.5,718.9-170.1z"/>
		<path class="st1" d="M756.4-103.3c-2.6,1.5-3.4,4.8-1.9,7.4c1.5,2.6,4.8,3.4,7.4,1.9c2.6-1.5,3.4-4.8,1.9-7.4
			C762.3-104,759-104.8,756.4-103.3z"/>
		<path class="st1" d="M641.1-35.1c-1,0.6-1.4,2-0.8,3c0.6,1,2,1.4,3,0.8c1-0.6,1.4-2,0.8-3C643.5-35.4,642.2-35.8,641.1-35.1z"/>
		<path class="st1" d="M714.8-109.3c-8.7,0-15.7,7-15.7,15.7s7,15.7,15.7,15.7c8.7,0,15.7-7,15.7-15.7S723.5-109.3,714.8-109.3z"/>
		<path class="st1" d="M680.6-50.1c-4.6,2.7-6.1,8.7-3.3,13.2c2.7,4.6,8.7,6.1,13.2,3.3c4.6-2.7,6.1-8.7,3.3-13.2
			C691.1-51.4,685.1-52.9,680.6-50.1z"/>
		<path class="st1" d="M758-161.3c2-1.2,2.6-3.8,1.5-5.8c-1.2-2-3.8-2.6-5.8-1.5c-2,1.2-2.6,3.8-1.5,5.8
			C753.4-160.7,756-160.1,758-161.3z"/>
		<path class="st1" d="M693.3-145.1c1.4-0.8,1.8-2.6,1-3.9c-0.8-1.4-2.6-1.8-3.9-1c-1.4,0.8-1.8,2.6-1,3.9
			C690.2-144.8,691.9-144.3,693.3-145.1z"/>
		<path class="st1" d="M687.4-77.1c0.6,1,2,1.4,3,0.8c1-0.6,1.4-2,0.8-3c-0.6-1-2-1.4-3-0.8C687.1-79.5,686.8-78.2,687.4-77.1z"/>
		<path class="st1" d="M723.8-126.6c4.6,1.6,9.6-0.9,11.1-5.5c1.6-4.6-0.9-9.6-5.5-11.1c-4.6-1.6-9.6,0.9-11.1,5.5
			C716.7-133.1,719.2-128.2,723.8-126.6z"/>
		<path class="st1" d="M354.7-155.3c4.2-3.1,5.1-9,2.1-13.2c-3.1-4.2-9-5.1-13.2-2.1c-4.2,3.1-5.1,9-2.1,13.2
			C344.5-153.1,350.5-152.2,354.7-155.3z"/>
		<path class="st1" d="M282.6-129.1c-3.8,2.7-4.6,8-1.8,11.8c2.7,3.8,8,4.6,11.8,1.8c3.8-2.7,4.6-8,1.8-11.8
			S286.3-131.8,282.6-129.1z"/>
		<path class="st1" d="M318.7-65.8c-4.6-0.4-8.7,3.1-9,7.8c-0.4,4.6,3.1,8.7,7.8,9c4.6,0.4,8.7-3.1,9-7.8
			C326.8-61.4,323.3-65.5,318.7-65.8z"/>
		<path class="st1" d="M280.2-70.1c-6.3-0.5-11.8,4.2-12.3,10.5c-0.5,6.3,4.2,11.8,10.5,12.3c6.3,0.5,11.8-4.2,12.3-10.5
			C291.2-64.1,286.5-69.6,280.2-70.1z"/>
		<path class="st1" d="M408.3-123.1c-6,1.9-9.4,8.3-7.5,14.3c1.9,6,8.3,9.4,14.3,7.5c6-1.9,9.4-8.3,7.5-14.3
			C420.7-121.6,414.3-124.9,408.3-123.1z"/>
		<path class="st1" d="M353.5-120c-4.6,1.4-7.2,6.4-5.8,11c1.4,4.6,6.4,7.2,11,5.8c4.6-1.4,7.2-6.4,5.8-11
			C363-118.8,358.1-121.4,353.5-120z"/>
		<path class="st1" d="M520.2-19.9c-1.9,0.6-3,2.7-2.4,4.6c0.6,1.9,2.7,3,4.6,2.4c1.9-0.6,3-2.7,2.4-4.6
			C524.2-19.4,522.1-20.5,520.2-19.9z"/>
		<path class="st1" d="M390.6-61.3c-5.8-2.5-12.5,0.2-15,6c-2.5,5.8,0.2,12.5,6,15s12.5-0.2,15-6C399.1-52.1,396.4-58.8,390.6-61.3z
			"/>
		<path class="st1" d="M410.9-164.2c-2.1-0.9-4.6,0.1-5.5,2.2c-0.9,2.1,0.1,4.6,2.2,5.5c2.1,0.9,4.6-0.1,5.5-2.2
			C414.1-160.8,413.1-163.3,410.9-164.2z"/>
		<path class="st1" d="M365.9-195.2c-1.5-0.6-3.1,0.1-3.8,1.5c-0.6,1.5,0.1,3.1,1.5,3.8c1.5,0.6,3.1-0.1,3.8-1.5
			C368-192.9,367.4-194.6,365.9-195.2z"/>
		<path class="st1" d="M378.8-145.2c-1.1-0.5-2.4,0-2.9,1.2c-0.5,1.1,0,2.4,1.2,2.9c1.1,0.5,2.4,0,2.9-1.2
			C380.5-143.5,379.9-144.7,378.8-145.2z"/>
		<path class="st1" d="M254-192.4c-1.7,1.2-2.1,3.6-0.8,5.3c1.2,1.7,3.6,2.1,5.3,0.8c1.7-1.2,2.1-3.6,0.8-5.3
			C258-193.2,255.7-193.6,254-192.4z"/>
		<path class="st1" d="M325.6-128.7c1.9-1.4,2.3-4,0.9-5.9c-1.4-1.9-4-2.3-5.9-0.9c-1.9,1.4-2.3,4-0.9,5.9
			C321.1-127.7,323.7-127.3,325.6-128.7z"/>
		<path class="st1" d="M384.9-97.8c1-0.7,1.2-2.1,0.5-3.1c-0.7-1-2.1-1.2-3.1-0.5c-1,0.7-1.2,2.1-0.5,3.1
			C382.6-97.3,384-97.1,384.9-97.8z"/>
		<path class="st1" d="M329.6-102.6c-2.1,0.2-3.6,2-3.4,4.1c0.2,2.1,2,3.6,4.1,3.4c2.1-0.2,3.6-2,3.4-4.1
			C333.5-101.2,331.6-102.8,329.6-102.6z"/>
		<path class="st1" d="M328.6-192.7c-0.9-1.3-2.7-1.6-4-0.6c-1.3,0.9-1.6,2.7-0.6,4c0.9,1.3,2.7,1.6,4,0.6
			C329.2-189.6,329.5-191.4,328.6-192.7z"/>
		<path class="st1" d="M384.4-174.5c1-0.7,1.2-2.1,0.5-3.1c-0.7-1-2.1-1.2-3.1-0.5c-1,0.7-1.2,2.1-0.5,3.1
			C382.1-174,383.5-173.8,384.4-174.5z"/>
		<path class="st1" d="M317.5-158.7c1.1-4.7-1.7-9.5-6.4-10.6c-4.7-1.1-9.5,1.7-10.6,6.4c-1.1,4.7,1.7,9.5,6.4,10.6
			C311.6-151.1,316.3-154,317.5-158.7z"/>
		<path class="st1" d="M284.9-190.6c-1.5,0.6-2.2,2.2-1.7,3.7c0.6,1.5,2.2,2.2,3.7,1.7c1.5-0.6,2.2-2.2,1.7-3.7
			C288-190.4,286.3-191.1,284.9-190.6z"/>
		<path class="st1" d="M59.3-17.4c-2.1-0.9-4.5,0.1-5.4,2.2c-0.9,2.1,0.1,4.5,2.2,5.4c2.1,0.9,4.5-0.1,5.4-2.2
			C62.4-14.1,61.4-16.5,59.3-17.4z"/>
		<path class="st1" d="M92.9-33.2c-4.3-1.8-9.2,0.2-11.1,4.5c-1.8,4.3,0.2,9.2,4.5,11.1c4.3,1.8,9.2-0.2,11.1-4.5
			C99.1-26.4,97.1-31.4,92.9-33.2z"/>
		<path class="st1" d="M742.1-792.8c5.8,2.5,12.5-0.2,15-6c0.2-0.4,0.3-0.8,0.4-1.2h-21.9C736.6-796.9,738.8-794.1,742.1-792.8z"/>
		<path class="st1" d="M582.5-6.5c-1.4-4.4-6.1-6.9-10.6-5.5c-4.4,1.4-6.9,6.1-5.5,10.6c0.2,0.5,0.4,1,0.6,1.5h14.8
			C582.9-1.9,583.2-4.3,582.5-6.5z"/>
		<path class="st1" d="M751-13.8c-5.8-2.5-12.5,0.2-15,6c-1.1,2.5-1.2,5.3-0.4,7.7h21.9C759.1-5.5,756.4-11.5,751-13.8z"/>
		<path class="st1" d="M40-62.4c-4.6,1.4-7.2,6.4-5.8,11c1.4,4.6,6.4,7.2,11,5.8c4.6-1.4,7.2-6.4,5.8-11
			C49.5-61.3,44.6-63.8,40-62.4z"/>
		<path class="st1" d="M79-103c3.7,1.6,8-0.1,9.5-3.8c1.6-3.7-0.1-8-3.8-9.5c-3.7-1.6-8,0.1-9.5,3.8C73.5-108.9,75.3-104.6,79-103z"
			/>
		<path class="st1" d="M70.3-87.6c-1.1-0.5-2.4,0-2.9,1.2c-0.5,1.1,0,2.4,1.2,2.9c1.1,0.5,2.4,0,2.9-1.2
			C72-85.9,71.4-87.2,70.3-87.6z"/>
		<path class="st1" d="M119.4-68.1c-4.9-2.1-10.6,0.2-12.7,5.1c-2.1,4.9,0.2,10.6,5.1,12.7c4.9,2.1,10.6-0.2,12.7-5.1
			C126.6-60.3,124.3-66,119.4-68.1z"/>
		<path class="st1" d="M84.1-205.6c-8.1,3.2-12,12.4-8.8,20.5c3.2,8.1,12.4,12,20.5,8.8c8.1-3.2,12-12.4,8.8-20.5
			C101.4-204.9,92.2-208.8,84.1-205.6z"/>
		<path class="st1" d="M114.4-119.3c-4.8,1.9-7.2,7.4-5.3,12.3c1.9,4.8,7.4,7.2,12.3,5.3c4.8-1.9,7.2-7.4,5.3-12.3
			C124.8-118.9,119.3-121.3,114.4-119.3z"/>
		<path class="st1" d="M149.9-44c1.7,4.3-0.4,9.2-4.7,11c-4.3,1.7-9.2-0.4-11-4.7c-1.7-4.3,0.4-9.2,4.7-11
			C143.3-50.4,148.2-48.3,149.9-44z M146.3-37.8c-1.1-0.5-2.4,0-2.9,1.2c-0.5,1.1,0,2.4,1.2,2.9c1.1,0.5,2.4,0,2.9-1.2
			C147.9-36,147.4-37.3,146.3-37.8z"/>
		<path class="st1" d="M146.3-37.8c-1.1-0.5-2.4,0-2.9,1.2c-0.5,1.1,0,2.4,1.2,2.9c1.1,0.5,2.4,0,2.9-1.2
			C147.9-36,147.4-37.3,146.3-37.8z"/>
		<path class="st1" d="M215.2-62.3c-4.4-1.5-9.2,0.9-10.7,5.3c-1.5,4.4,0.9,9.2,5.3,10.7c4.4,1.5,9.2-0.9,10.7-5.3
			C222-56.1,219.6-60.8,215.2-62.3z"/>
		<path class="st1" d="M220.7-187.5c-3.6-1.2-7.5,0.7-8.8,4.3c-1.2,3.6,0.7,7.5,4.3,8.8c3.6,1.2,7.5-0.7,8.8-4.3
			C226.2-182.3,224.3-186.2,220.7-187.5z"/>
		<path class="st1" d="M186.1-196.3c-0.3-6.3-5.7-11.2-12-10.8c-6.3,0.3-11.2,5.7-10.8,12c0.3,6.3,5.7,11.2,12,10.8
			C181.6-184.5,186.4-189.9,186.1-196.3z"/>
		<path class="st1" d="M178.2-105.1c-0.3-4.8-4.4-8.5-9.2-8.3c-4.8,0.3-8.5,4.4-8.3,9.2c0.3,4.8,4.4,8.5,9.2,8.3
			C174.7-96.1,178.4-100.2,178.2-105.1z"/>
		<path class="st1" d="M242.8-127.8c-5-3.8-12.2-2.9-16.1,2.1c-3.8,5-2.9,12.2,2.1,16.1c5,3.8,12.2,2.9,16.1-2.1
			C248.7-116.7,247.8-123.9,242.8-127.8z"/>
		<path class="st1" d="M163.7-156.7c1.4-1.8,1.1-4.5-0.8-5.9c-1.8-1.4-4.5-1.1-5.9,0.8c-1.4,1.8-1.1,4.5,0.8,5.9
			C159.6-154.5,162.3-154.8,163.7-156.7z"/>
		<path class="st1" d="M95.4-131.3c1-1.3,0.7-3.1-0.5-4c-1.3-1-3.1-0.7-4,0.5c-1,1.3-0.7,3.1,0.5,4
			C92.6-129.8,94.4-130.1,95.4-131.3z"/>
		<path class="st1" d="M145.9-132.3c0.7-1,0.5-2.3-0.4-3.1c-1-0.7-2.3-0.5-3.1,0.4c-0.7,1-0.6,2.3,0.4,3.1
			C143.8-131.2,145.2-131.3,145.9-132.3z"/>
		<path class="st1" d="M74.8-139.4c-0.3-4.8-4.4-8.5-9.2-8.3c-4.8,0.3-8.5,4.4-8.3,9.2c0.3,4.8,4.4,8.5,9.2,8.3
			C71.3-130.5,75.1-134.6,74.8-139.4z"/>
		<path class="st1" d="M41.5-159.2c1,0.7,2.3,0.6,3.1-0.4c0.7-1,0.5-2.3-0.4-3.1c-1-0.7-2.3-0.5-3.1,0.4
			C40.3-161.4,40.5-160,41.5-159.2z"/>
		<path class="st1" d="M142.9-73.8c2.2-0.9,3.2-3.3,2.4-5.5c-0.9-2.2-3.3-3.2-5.5-2.4c-2.2,0.9-3.2,3.3-2.4,5.5
			C138.3-74,140.8-73,142.9-73.8z"/>
		<path class="st1" d="M187.1-130.4c-1.1,0.4-1.7,1.7-1.2,2.8c0.4,1.1,1.7,1.7,2.8,1.2c1.1-0.4,1.7-1.7,1.2-2.8
			C189.5-130.3,188.2-130.8,187.1-130.4z"/>
		<path class="st1" d="M175.9-79.8c-2.1-0.3-4,1.1-4.3,3.1c-0.3,2.1,1.1,4,3.1,4.3c2.1,0.3,4-1.1,4.3-3.1
			C179.4-77.5,178-79.5,175.9-79.8z"/>
		<path class="st1" d="M116.2-149.8c1.1-0.4,1.7-1.7,1.2-2.8c-0.4-1.1-1.7-1.7-2.8-1.2c-1.1,0.4-1.7,1.7-1.2,2.8
			C113.8-149.9,115.1-149.4,116.2-149.8z"/>
		<path class="st1" d="M77.8-58.3c-1.6,0.2-2.7,1.6-2.5,3.1c0.2,1.6,1.6,2.7,3.1,2.5c1.6-0.2,2.7-1.6,2.5-3.1
			C80.7-57.3,79.3-58.5,77.8-58.3z"/>
		<path class="st1" d="M43.3-79.8c1.5,1,3.5,0.6,4.5-0.9c1-1.5,0.6-3.5-0.9-4.5c-1.5-1-3.5-0.6-4.5,0.9
			C41.4-82.8,41.8-80.8,43.3-79.8z"/>
		<path class="st1" d="M35-112.2c0.7,1.6,2.7,2.3,4.3,1.6c1.6-0.8,2.3-2.7,1.6-4.3c-0.7-1.6-2.7-2.3-4.3-1.6
			C34.9-115.7,34.2-113.8,35-112.2z"/>
		<path class="st1" d="M689.1-785.8c2.1,0.9,4.5-0.1,5.4-2.2c0.9-2.1-0.1-4.5-2.2-5.4c-2.1-0.9-4.5,0.1-5.4,2.2
			C686.1-789.1,687.1-786.7,689.1-785.8z"/>
		<path class="st1" d="M693.1-745.8c5.8,2.5,12.5-0.2,15-6c2.5-5.8-0.2-12.5-6-15c-5.8-2.5-12.5,0.2-15,6
			C684.6-754.9,687.3-748.2,693.1-745.8z"/>
		<path class="st1" d="M16.3-40.6c-1.1-0.5-2.4,0-2.9,1.2c-0.5,1.1,0,2.4,1.2,2.9c1.1,0.5,2.4,0,2.9-1.2
			C18-38.9,17.4-40.2,16.3-40.6z"/>
		<path class="st1" d="M11.6-100.7c-4.8,0.3-8.5,4.4-8.3,9.2c0.3,4.8,4.4,8.5,9.2,8.3c4.8-0.3,8.5-4.4,8.3-9.2
			C20.5-97.3,16.4-101,11.6-100.7z"/>
		<path class="st1" d="M771.2-566.7c-1-0.7-2.3-0.5-3.1,0.4c-0.7,1-0.5,2.3,0.4,3.1c1,0.7,2.3,0.6,3.1-0.4
			C772.3-564.6,772.1-566,771.2-566.7z"/>
		<path class="st1" d="M16-181.9c-4.8,0.3-8.5,4.4-8.3,9.2c0.3,4.8,4.4,8.5,9.2,8.3c4.8-0.3,8.5-4.4,8.3-9.2
			C25-178.5,20.9-182.2,16-181.9z"/>
		<path class="st1" d="M794.6-662.1c-4.6,2.7-6.1,8.7-3.3,13.2c1.9,3.2,5.3,4.9,8.8,4.7v-19.3C798.2-663.6,796.3-663.1,794.6-662.1z
			"/>
		<path class="st1" d="M798.2-284.4c0.4,1.2,1,2.3,1.8,3.2v-11.6C798.1-290.6,797.3-287.4,798.2-284.4z"/>
		<path class="st1" d="M800-392.8v-2.4C799.5-394.4,799.5-393.5,800-392.8z"/>
		<path class="st1" d="M799-345.2c0.2,0.5,0.6,0.9,1,1.2v-5.2C798.8-348.3,798.3-346.6,799-345.2z"/>
		<path class="st1" d="M774.8-484.7c1-1.5,0.6-3.5-0.9-4.5c-1.5-1-3.5-0.6-4.5,0.9c-1,1.5-0.6,3.5,0.9,4.5
			C771.7-482.8,773.8-483.2,774.8-484.7z"/>
		<path class="st1" d="M768.5-520.5c-1.6,0.7-2.3,2.7-1.6,4.3c0.7,1.6,2.7,2.3,4.3,1.6c1.6-0.8,2.3-2.7,1.6-4.3
			C772.1-520.5,770.2-521.2,768.5-520.5z"/>
		<path class="st1" d="M770.3-681.6c4.8,0,8.8-3.9,8.8-8.8c0-4.8-3.9-8.8-8.8-8.8c-4.8,0-8.8,3.9-8.8,8.8
			C761.6-685.6,765.5-681.6,770.3-681.6z"/>
		<path class="st1" d="M781.8-655.4c-2.9-2.5-7.3-2.1-9.7,0.8c-2.5,2.9-2.1,7.3,0.8,9.7c2.9,2.5,7.3,2.1,9.7-0.8
			C785.1-648.5,784.7-652.9,781.8-655.4z"/>
		<path class="st1" d="M672.6-710.6c2-1.2,2.6-3.8,1.5-5.8c-1.2-2-3.8-2.6-5.8-1.5c-2,1.2-2.6,3.8-1.5,5.8
			C668-710,670.6-709.4,672.6-710.6z"/>
		<path class="st1" d="M673-660.6c0.6,1,2,1.4,3,0.8c1-0.6,1.4-2,0.8-3c-0.6-1-2-1.4-3-0.8C672.7-663,672.3-661.7,673-660.6z"/>
		<path class="st1" d="M279.4-22.5c1.2-3.6-0.7-7.5-4.3-8.7c-3.6-1.2-7.5,0.7-8.7,4.3c-1.2,3.6,0.7,7.5,4.3,8.7
			C274.2-16.9,278.1-18.9,279.4-22.5z"/>
		<path class="st1" d="M168.6-24.1c4-0.2,7.1-3.7,6.8-7.7c-0.2-4-3.7-7.1-7.7-6.8c-4,0.2-7.1,3.7-6.8,7.7
			C161.2-27,164.6-23.9,168.6-24.1z"/>
		<path class="st1" d="M196.8-19.3c-1,3.6,1.1,7.3,4.7,8.3c3.6,1,7.3-1.1,8.3-4.7c1-3.6-1.1-7.3-4.7-8.3
			C201.5-25,197.8-22.9,196.8-19.3z"/>
		<path class="st1" d="M240.7-58c-1-1.5-3-1.9-4.5-0.9c-1.5,1-1.9,3-0.9,4.5c1,1.5,3,1.9,4.5,0.9C241.3-54.6,241.7-56.6,240.7-58z"
			/>
		<path class="st1" d="M213.1-91.6c0.1,1.8,1.6,3.2,3.4,3.1c1.8-0.1,3.2-1.6,3.1-3.4c-0.1-1.8-1.6-3.2-3.4-3.1
			C214.4-94.9,213-93.3,213.1-91.6z"/>
		<path class="st1" d="M482-31c3.7,1.6,8-0.1,9.5-3.8c1.6-3.7-0.1-8-3.8-9.5c-3.7-1.6-8,0.1-9.5,3.8C476.5-36.9,478.3-32.6,482-31z"
			/>
		<path class="st1" d="M318.5-18c3.5-1.3,5.2-5.2,3.9-8.7c-1.3-3.5-5.2-5.2-8.7-3.9c-3.5,1.3-5.2,5.2-3.9,8.7
			C311.1-18.4,315-16.7,318.5-18z"/>
		<path class="st1" d="M400-21.6c3.7-0.4,6.4-3.7,6-7.5c-0.4-3.7-3.7-6.4-7.5-6c-3.7,0.4-6.4,3.7-6,7.5
			C393-23.9,396.3-21.2,400-21.6z"/>
		<path class="st1" d="M457.9-24.2c3.4,1.6,7.4,0.1,9-3.3c1.6-3.4,0.1-7.4-3.3-9c-3.4-1.6-7.4-0.1-9,3.3
			C453-29.8,454.5-25.8,457.9-24.2z"/>
	</g>
</pattern>
<rect class="st2" width="1200" height="700"/>
</svg>
